%
M48
M72
T01C0.0319
T02C0.0394
T03C0.0402
T04C0.0512
T05C0.0520
T06C0.1000
%
T01
X5808Y20751
X9808Y20751
X11683Y21501
X12183Y20751
X12683Y21501
X19483Y21751
X20883Y21751
T02
X18433Y19126
X17433Y19126
X16433Y19126
X15433Y19126
X14433Y19126
X13433Y19126
X12433Y19126
X11433Y19126
X11433Y10126
X12433Y10126
X13433Y10126
X14433Y10126
X15433Y10126
X16433Y10126
X17433Y10126
X18433Y10126
T03
X21096Y7657
X21096Y1594
X9521Y3641
X9521Y5610
X7408Y5876
X6208Y2876
X14433Y21501
X15433Y21501
X16433Y21501
X17433Y21501
T04
X2923Y2117
X2923Y4117
X2923Y6117
T05
X2933Y8276
X2933Y10276
X2933Y14476
X2933Y16476
T06
X1433Y22376
X6558Y10001
M30
