G75*
G70*
%OFA0B0*%
%FSLAX24Y24*%
%IPPOS*%
%LPD*%
%AMOC8*
5,1,8,0,0,1.08239X$1,22.5*
%
%ADD10R,0.0600X0.0600*%
%ADD11OC8,0.0630*%
%ADD12C,0.0630*%
%ADD13C,0.0600*%
%ADD14C,0.1000*%
%ADD15C,0.0594*%
%ADD16OC8,0.0520*%
%ADD17OC8,0.0660*%
%ADD18C,0.0787*%
%ADD19C,0.0320*%
%ADD20C,0.0500*%
%ADD21C,0.0160*%
D10*
X009521Y003641D03*
X009521Y005610D03*
X021096Y007657D03*
X021096Y001594D03*
D11*
X020883Y021751D03*
D12*
X019483Y021751D03*
D13*
X017433Y021801D02*
X017433Y021201D01*
X016433Y021201D02*
X016433Y021801D01*
X015433Y021801D02*
X015433Y021201D01*
X014433Y021201D02*
X014433Y021801D01*
X007708Y005876D02*
X007108Y005876D01*
X006508Y002876D02*
X005908Y002876D01*
D14*
X003433Y008276D02*
X002433Y008276D01*
X002433Y010276D02*
X003433Y010276D01*
X003433Y014476D02*
X002433Y014476D01*
X002433Y016476D02*
X003433Y016476D01*
D15*
X011433Y019126D03*
X012433Y019126D03*
X013433Y019126D03*
X014433Y019126D03*
X015433Y019126D03*
X016433Y019126D03*
X017433Y019126D03*
X018433Y019126D03*
X018433Y010126D03*
X017433Y010126D03*
X016433Y010126D03*
X015433Y010126D03*
X014433Y010126D03*
X013433Y010126D03*
X012433Y010126D03*
X011433Y010126D03*
D16*
X012183Y020751D03*
X011683Y021501D03*
X012683Y021501D03*
D17*
X009808Y020751D03*
X005808Y020751D03*
D18*
X002923Y006117D03*
X002923Y004117D03*
X002923Y002117D03*
D19*
X010433Y009126D02*
X016058Y009126D01*
X016433Y009501D01*
X016433Y010126D01*
X015433Y010126D02*
X015433Y010876D01*
X014558Y011751D01*
X008808Y011751D01*
X007433Y013126D01*
X007433Y017876D01*
X005808Y019501D01*
X005808Y020751D01*
X004808Y021376D02*
X004808Y019501D01*
X006683Y017626D01*
X006683Y012876D01*
X010433Y009126D01*
X017433Y013376D02*
X019308Y011501D01*
X019308Y001626D01*
X020308Y000626D01*
X021558Y000626D01*
X022183Y001251D01*
X022183Y006569D01*
X021096Y007657D01*
X021096Y021538D01*
X020883Y021751D01*
X019483Y021751D02*
X019433Y021701D01*
X019433Y020251D01*
X018433Y019251D01*
X018433Y019126D01*
X018433Y017376D01*
X020058Y015751D01*
X020058Y005251D01*
X021096Y004213D01*
X021096Y001594D01*
X017433Y013376D02*
X017433Y019126D01*
X017433Y018001D01*
X016808Y017376D01*
X009558Y017376D01*
X007933Y019001D01*
X007933Y021751D01*
X008558Y022376D01*
X011058Y022376D01*
X011683Y021751D01*
X011683Y021501D01*
X012183Y020751D02*
X009808Y020751D01*
X012683Y021501D02*
X014433Y021501D01*
X015433Y021501D02*
X015433Y020626D01*
X016433Y019626D01*
X016433Y019126D01*
X016433Y021501D02*
X016433Y022126D01*
X015558Y023001D01*
X006433Y023001D01*
X004808Y021376D01*
X017433Y021501D02*
X019233Y021501D01*
X019483Y021751D01*
D20*
X004808Y012626D02*
X004808Y008476D01*
X007408Y005876D01*
X009255Y005876D01*
X009521Y005610D01*
X009521Y003641D02*
X008755Y002876D01*
X006208Y002876D01*
X005450Y002117D01*
X002923Y002117D01*
X002923Y006117D02*
X002923Y008266D01*
X002933Y008276D01*
X002933Y008251D02*
X002933Y010251D01*
X004808Y012626D02*
X002933Y014501D01*
X002933Y016476D01*
D21*
X000808Y017751D02*
X000808Y000626D01*
X010558Y000626D01*
X010558Y007501D01*
X006589Y007501D01*
X007594Y006496D01*
X007832Y006496D01*
X007952Y006446D01*
X009369Y006446D01*
X009578Y006359D01*
X009707Y006230D01*
X009885Y006230D01*
X010002Y006181D01*
X010092Y006091D01*
X010141Y005973D01*
X010141Y005246D01*
X010092Y005129D01*
X010002Y005039D01*
X009885Y004990D01*
X009157Y004990D01*
X009040Y005039D01*
X008950Y005129D01*
X008901Y005246D01*
X008901Y005306D01*
X007952Y005306D01*
X007832Y005256D01*
X006985Y005256D01*
X006757Y005350D01*
X006583Y005524D01*
X006488Y005752D01*
X006488Y005989D01*
X004325Y008153D01*
X004253Y008326D01*
X004253Y008112D01*
X004128Y007811D01*
X003898Y007580D01*
X003596Y007456D01*
X003493Y007456D01*
X003493Y006557D01*
X003529Y006522D01*
X003637Y006259D01*
X003637Y005975D01*
X003529Y005713D01*
X003328Y005512D01*
X003065Y005404D01*
X002782Y005404D01*
X002519Y005512D01*
X002318Y005713D01*
X002210Y005975D01*
X002210Y006259D01*
X002318Y006522D01*
X002353Y006557D01*
X002353Y007456D01*
X002270Y007456D01*
X001969Y007580D01*
X001738Y007811D01*
X001613Y008112D01*
X001613Y008439D01*
X001738Y008740D01*
X001969Y008971D01*
X002270Y009096D01*
X002363Y009096D01*
X002363Y009456D01*
X002270Y009456D01*
X001969Y009580D01*
X001738Y009811D01*
X001613Y010112D01*
X001613Y010439D01*
X001738Y010740D01*
X001969Y010971D01*
X002270Y011096D01*
X003596Y011096D01*
X003898Y010971D01*
X004128Y010740D01*
X004238Y010475D01*
X004238Y012389D01*
X002972Y013656D01*
X002270Y013656D01*
X001969Y013780D01*
X001738Y014011D01*
X001613Y014312D01*
X001613Y014639D01*
X001738Y014940D01*
X001969Y015171D01*
X002270Y015296D01*
X002363Y015296D01*
X002363Y015656D01*
X002270Y015656D01*
X001969Y015780D01*
X001738Y016011D01*
X001613Y016312D01*
X001613Y016639D01*
X001738Y016940D01*
X001969Y017171D01*
X002270Y017296D01*
X003596Y017296D01*
X003898Y017171D01*
X004128Y016940D01*
X004253Y016639D01*
X004253Y016312D01*
X004128Y016011D01*
X003898Y015780D01*
X003596Y015656D01*
X003503Y015656D01*
X003503Y015296D01*
X003596Y015296D01*
X003898Y015171D01*
X004128Y014940D01*
X004253Y014639D01*
X004253Y014312D01*
X004158Y014082D01*
X005131Y013109D01*
X005292Y012948D01*
X005369Y012761D01*
X005308Y017751D01*
X000808Y017751D01*
X000808Y017719D02*
X005309Y017719D01*
X005311Y017561D02*
X000808Y017561D01*
X000808Y017402D02*
X005313Y017402D01*
X005315Y017244D02*
X003722Y017244D01*
X003983Y017085D02*
X005316Y017085D01*
X005318Y016927D02*
X004134Y016927D01*
X004200Y016768D02*
X005320Y016768D01*
X005322Y016610D02*
X004253Y016610D01*
X004253Y016451D02*
X005324Y016451D01*
X005326Y016293D02*
X004245Y016293D01*
X004179Y016134D02*
X005328Y016134D01*
X005330Y015976D02*
X004093Y015976D01*
X003935Y015817D02*
X005332Y015817D01*
X005334Y015659D02*
X003604Y015659D01*
X003503Y015500D02*
X005336Y015500D01*
X005338Y015342D02*
X003503Y015342D01*
X003868Y015183D02*
X005340Y015183D01*
X005342Y015025D02*
X004044Y015025D01*
X004159Y014866D02*
X005344Y014866D01*
X005345Y014708D02*
X004225Y014708D01*
X004253Y014549D02*
X005347Y014549D01*
X005349Y014391D02*
X004253Y014391D01*
X004220Y014232D02*
X005351Y014232D01*
X005353Y014074D02*
X004166Y014074D01*
X004325Y013915D02*
X005355Y013915D01*
X005357Y013757D02*
X004483Y013757D01*
X004642Y013598D02*
X005359Y013598D01*
X005361Y013440D02*
X004800Y013440D01*
X004959Y013281D02*
X005363Y013281D01*
X005365Y013123D02*
X005117Y013123D01*
X005276Y012964D02*
X005367Y012964D01*
X005351Y012806D02*
X005369Y012806D01*
X004238Y012330D02*
X000808Y012330D01*
X000808Y012172D02*
X004238Y012172D01*
X004238Y012013D02*
X000808Y012013D01*
X000808Y011855D02*
X004238Y011855D01*
X004238Y011696D02*
X000808Y011696D01*
X000808Y011538D02*
X004238Y011538D01*
X004238Y011379D02*
X000808Y011379D01*
X000808Y011221D02*
X004238Y011221D01*
X004238Y011062D02*
X003677Y011062D01*
X003965Y010904D02*
X004238Y010904D01*
X004238Y010745D02*
X004123Y010745D01*
X004192Y010587D02*
X004238Y010587D01*
X004139Y012489D02*
X000808Y012489D01*
X000808Y012647D02*
X003981Y012647D01*
X003822Y012806D02*
X000808Y012806D01*
X000808Y012964D02*
X003664Y012964D01*
X003505Y013123D02*
X000808Y013123D01*
X000808Y013281D02*
X003347Y013281D01*
X003188Y013440D02*
X000808Y013440D01*
X000808Y013598D02*
X003030Y013598D01*
X002026Y013757D02*
X000808Y013757D01*
X000808Y013915D02*
X001834Y013915D01*
X001712Y014074D02*
X000808Y014074D01*
X000808Y014232D02*
X001647Y014232D01*
X001613Y014391D02*
X000808Y014391D01*
X000808Y014549D02*
X001613Y014549D01*
X001642Y014708D02*
X000808Y014708D01*
X000808Y014866D02*
X001708Y014866D01*
X001823Y015025D02*
X000808Y015025D01*
X000808Y015183D02*
X001999Y015183D01*
X002263Y015659D02*
X000808Y015659D01*
X000808Y015817D02*
X001932Y015817D01*
X001774Y015976D02*
X000808Y015976D01*
X000808Y016134D02*
X001687Y016134D01*
X001622Y016293D02*
X000808Y016293D01*
X000808Y016451D02*
X001613Y016451D01*
X001613Y016610D02*
X000808Y016610D01*
X000808Y016768D02*
X001667Y016768D01*
X001733Y016927D02*
X000808Y016927D01*
X000808Y017085D02*
X001883Y017085D01*
X002145Y017244D02*
X000808Y017244D01*
X000808Y015500D02*
X002363Y015500D01*
X002363Y015342D02*
X000808Y015342D01*
X000808Y011062D02*
X002189Y011062D01*
X001902Y010904D02*
X000808Y010904D01*
X000808Y010745D02*
X001743Y010745D01*
X001675Y010587D02*
X000808Y010587D01*
X000808Y010428D02*
X001613Y010428D01*
X001613Y010270D02*
X000808Y010270D01*
X000808Y010111D02*
X001614Y010111D01*
X001680Y009953D02*
X000808Y009953D01*
X000808Y009794D02*
X001755Y009794D01*
X001914Y009636D02*
X000808Y009636D01*
X000808Y009477D02*
X002218Y009477D01*
X002363Y009319D02*
X000808Y009319D01*
X000808Y009160D02*
X002363Y009160D01*
X002043Y009002D02*
X000808Y009002D01*
X000808Y008843D02*
X001841Y008843D01*
X001715Y008685D02*
X000808Y008685D01*
X000808Y008526D02*
X001650Y008526D01*
X001613Y008368D02*
X000808Y008368D01*
X000808Y008209D02*
X001613Y008209D01*
X001639Y008051D02*
X000808Y008051D01*
X000808Y007892D02*
X001705Y007892D01*
X001816Y007734D02*
X000808Y007734D01*
X000808Y007575D02*
X001982Y007575D01*
X002353Y007417D02*
X000808Y007417D01*
X000808Y007258D02*
X002353Y007258D01*
X002353Y007100D02*
X000808Y007100D01*
X000808Y006941D02*
X002353Y006941D01*
X002353Y006783D02*
X000808Y006783D01*
X000808Y006624D02*
X002353Y006624D01*
X002295Y006466D02*
X000808Y006466D01*
X000808Y006307D02*
X002230Y006307D01*
X002210Y006149D02*
X000808Y006149D01*
X000808Y005990D02*
X002210Y005990D01*
X002269Y005832D02*
X000808Y005832D01*
X000808Y005673D02*
X002358Y005673D01*
X002517Y005515D02*
X000808Y005515D01*
X000808Y005356D02*
X006751Y005356D01*
X006593Y005515D02*
X003330Y005515D01*
X003489Y005673D02*
X006521Y005673D01*
X006488Y005832D02*
X003578Y005832D01*
X003637Y005990D02*
X006488Y005990D01*
X006329Y006149D02*
X003637Y006149D01*
X003617Y006307D02*
X006171Y006307D01*
X006012Y006466D02*
X003552Y006466D01*
X003493Y006624D02*
X005854Y006624D01*
X005695Y006783D02*
X003493Y006783D01*
X003493Y006941D02*
X005537Y006941D01*
X005378Y007100D02*
X003493Y007100D01*
X003493Y007258D02*
X005220Y007258D01*
X005061Y007417D02*
X003493Y007417D01*
X003885Y007575D02*
X004903Y007575D01*
X004744Y007734D02*
X004051Y007734D01*
X004162Y007892D02*
X004586Y007892D01*
X004427Y008051D02*
X004228Y008051D01*
X004253Y008209D02*
X004302Y008209D01*
X006673Y007417D02*
X010558Y007417D01*
X010558Y007258D02*
X006832Y007258D01*
X006990Y007100D02*
X010558Y007100D01*
X010558Y006941D02*
X007149Y006941D01*
X007307Y006783D02*
X010558Y006783D01*
X010558Y006624D02*
X007466Y006624D01*
X007904Y006466D02*
X010558Y006466D01*
X010558Y006307D02*
X009630Y006307D01*
X010035Y006149D02*
X010558Y006149D01*
X010558Y005990D02*
X010134Y005990D01*
X010141Y005832D02*
X010558Y005832D01*
X010558Y005673D02*
X010141Y005673D01*
X010141Y005515D02*
X010558Y005515D01*
X010558Y005356D02*
X010141Y005356D01*
X010121Y005198D02*
X010558Y005198D01*
X010558Y005039D02*
X010003Y005039D01*
X010558Y004881D02*
X000808Y004881D01*
X000808Y005039D02*
X009039Y005039D01*
X008921Y005198D02*
X000808Y005198D01*
X000808Y004722D02*
X002734Y004722D01*
X002775Y004735D02*
X002680Y004705D01*
X002591Y004659D01*
X002511Y004601D01*
X002440Y004530D01*
X002382Y004449D01*
X002336Y004361D01*
X002305Y004266D01*
X002290Y004167D01*
X002290Y004165D01*
X002876Y004165D01*
X002876Y004751D01*
X002874Y004751D01*
X002775Y004735D01*
X002876Y004722D02*
X002971Y004722D01*
X002971Y004751D02*
X002971Y004165D01*
X002876Y004165D01*
X002876Y004069D01*
X002971Y004069D01*
X002971Y003484D01*
X002973Y003484D01*
X003072Y003499D01*
X003167Y003530D01*
X003256Y003575D01*
X003336Y003634D01*
X003407Y003704D01*
X003465Y003785D01*
X003511Y003874D01*
X003542Y003969D01*
X003557Y004067D01*
X003557Y004069D01*
X002971Y004069D01*
X002971Y004165D01*
X003557Y004165D01*
X003557Y004167D01*
X003542Y004266D01*
X003511Y004361D01*
X003465Y004449D01*
X003407Y004530D01*
X003336Y004601D01*
X003256Y004659D01*
X003167Y004705D01*
X003072Y004735D01*
X002973Y004751D01*
X002971Y004751D01*
X003113Y004722D02*
X010558Y004722D01*
X010558Y004564D02*
X003373Y004564D01*
X003488Y004405D02*
X010558Y004405D01*
X010558Y004247D02*
X009920Y004247D01*
X009885Y004261D02*
X009157Y004261D01*
X009040Y004213D01*
X008950Y004123D01*
X008901Y004005D01*
X008901Y003827D01*
X008519Y003446D01*
X006752Y003446D01*
X006632Y003496D01*
X005785Y003496D01*
X005557Y003401D01*
X005383Y003227D01*
X005288Y002999D01*
X005288Y002762D01*
X005214Y002687D01*
X003363Y002687D01*
X003328Y002722D01*
X003065Y002831D01*
X002782Y002831D01*
X002519Y002722D01*
X002318Y002522D01*
X002210Y002259D01*
X002210Y001975D01*
X002318Y001713D01*
X002519Y001512D01*
X002782Y001404D01*
X003065Y001404D01*
X003328Y001512D01*
X003363Y001547D01*
X005563Y001547D01*
X005773Y001634D01*
X006394Y002256D01*
X006632Y002256D01*
X006752Y002306D01*
X008869Y002306D01*
X009078Y002392D01*
X009707Y003021D01*
X009885Y003021D01*
X010002Y003070D01*
X010092Y003160D01*
X010141Y003278D01*
X010141Y004005D01*
X010092Y004123D01*
X010002Y004213D01*
X009885Y004261D01*
X010107Y004088D02*
X010558Y004088D01*
X010558Y003930D02*
X010141Y003930D01*
X010141Y003771D02*
X010558Y003771D01*
X010558Y003613D02*
X010141Y003613D01*
X010141Y003454D02*
X010558Y003454D01*
X010558Y003296D02*
X010141Y003296D01*
X010069Y003137D02*
X010558Y003137D01*
X010558Y002979D02*
X009664Y002979D01*
X009506Y002820D02*
X010558Y002820D01*
X010558Y002662D02*
X009347Y002662D01*
X009189Y002503D02*
X010558Y002503D01*
X010558Y002345D02*
X008963Y002345D01*
X008528Y003454D02*
X006732Y003454D01*
X005685Y003454D02*
X000808Y003454D01*
X000808Y003296D02*
X005452Y003296D01*
X005346Y003137D02*
X000808Y003137D01*
X000808Y002979D02*
X005288Y002979D01*
X005288Y002820D02*
X003092Y002820D01*
X002755Y002820D02*
X000808Y002820D01*
X000808Y002662D02*
X002458Y002662D01*
X002311Y002503D02*
X000808Y002503D01*
X000808Y002345D02*
X002245Y002345D01*
X002210Y002186D02*
X000808Y002186D01*
X000808Y002028D02*
X002210Y002028D01*
X002254Y001869D02*
X000808Y001869D01*
X000808Y001711D02*
X002321Y001711D01*
X002479Y001552D02*
X000808Y001552D01*
X000808Y001394D02*
X010558Y001394D01*
X010558Y001552D02*
X005575Y001552D01*
X005849Y001711D02*
X010558Y001711D01*
X010558Y001869D02*
X006008Y001869D01*
X006166Y002028D02*
X010558Y002028D01*
X010558Y002186D02*
X006325Y002186D01*
X008686Y003613D02*
X003307Y003613D01*
X003455Y003771D02*
X008845Y003771D01*
X008901Y003930D02*
X003529Y003930D01*
X003545Y004247D02*
X009122Y004247D01*
X008935Y004088D02*
X002971Y004088D01*
X002876Y004088D02*
X000808Y004088D01*
X000808Y003930D02*
X002318Y003930D01*
X002305Y003969D02*
X002336Y003874D01*
X002382Y003785D01*
X002440Y003704D01*
X002511Y003634D01*
X002591Y003575D01*
X002680Y003530D01*
X002775Y003499D01*
X002874Y003484D01*
X002876Y003484D01*
X002876Y004069D01*
X002290Y004069D01*
X002290Y004067D01*
X002305Y003969D01*
X002392Y003771D02*
X000808Y003771D01*
X000808Y003613D02*
X002540Y003613D01*
X002876Y003613D02*
X002971Y003613D01*
X002971Y003771D02*
X002876Y003771D01*
X002876Y003930D02*
X002971Y003930D01*
X002971Y004247D02*
X002876Y004247D01*
X002876Y004405D02*
X002971Y004405D01*
X002971Y004564D02*
X002876Y004564D01*
X002474Y004564D02*
X000808Y004564D01*
X000808Y004405D02*
X002359Y004405D01*
X002302Y004247D02*
X000808Y004247D01*
X000808Y001235D02*
X010558Y001235D01*
X010558Y001077D02*
X000808Y001077D01*
X000808Y000918D02*
X010558Y000918D01*
X010558Y000760D02*
X000808Y000760D01*
X009007Y012231D02*
X007913Y013324D01*
X007913Y017971D01*
X007840Y018147D01*
X007683Y018304D01*
X007683Y019251D01*
X006737Y019251D01*
X006288Y019699D01*
X006288Y020311D01*
X006458Y020481D01*
X006458Y021020D01*
X006078Y021401D01*
X005539Y021401D01*
X005288Y021150D01*
X005288Y021177D01*
X006632Y022521D01*
X015360Y022521D01*
X015460Y022421D01*
X015310Y022421D01*
X015082Y022326D01*
X014933Y022177D01*
X014785Y022326D01*
X014557Y022421D01*
X014310Y022421D01*
X014082Y022326D01*
X013908Y022152D01*
X013837Y021981D01*
X013024Y021981D01*
X012924Y022081D01*
X012443Y022081D01*
X012127Y021764D01*
X011890Y022001D01*
X011683Y022001D01*
X011476Y022001D01*
X011183Y021708D01*
X011183Y021501D01*
X011683Y021501D01*
X011683Y022001D01*
X011683Y021501D01*
X011683Y021501D01*
X011683Y021501D01*
X011183Y021501D01*
X011183Y021293D01*
X011246Y021231D01*
X010248Y021231D01*
X010078Y021401D01*
X009539Y021401D01*
X009158Y021020D01*
X009158Y020481D01*
X009539Y020101D01*
X010078Y020101D01*
X010248Y020271D01*
X011843Y020271D01*
X011943Y020171D01*
X012424Y020171D01*
X012763Y020510D01*
X012763Y020921D01*
X012924Y020921D01*
X013024Y021021D01*
X013837Y021021D01*
X013908Y020849D01*
X014082Y020675D01*
X014310Y020581D01*
X014557Y020581D01*
X014785Y020675D01*
X014933Y020824D01*
X014953Y020804D01*
X014953Y020530D01*
X015026Y020354D01*
X015695Y019685D01*
X015556Y019742D01*
X015311Y019742D01*
X015084Y019649D01*
X014933Y019498D01*
X014783Y019649D01*
X014556Y019742D01*
X014311Y019742D01*
X014084Y019649D01*
X013933Y019498D01*
X013783Y019649D01*
X013556Y019742D01*
X013311Y019742D01*
X013084Y019649D01*
X012933Y019498D01*
X012783Y019649D01*
X012556Y019742D01*
X012311Y019742D01*
X012084Y019649D01*
X011933Y019498D01*
X011783Y019649D01*
X011556Y019742D01*
X011311Y019742D01*
X011084Y019649D01*
X010910Y019475D01*
X010816Y019248D01*
X010816Y019003D01*
X010910Y018776D01*
X011084Y018603D01*
X011311Y018509D01*
X011556Y018509D01*
X011783Y018603D01*
X011933Y018753D01*
X012084Y018603D01*
X012311Y018509D01*
X012556Y018509D01*
X012783Y018603D01*
X012933Y018753D01*
X013084Y018603D01*
X013311Y018509D01*
X013556Y018509D01*
X013783Y018603D01*
X013933Y018753D01*
X014084Y018603D01*
X014311Y018509D01*
X014556Y018509D01*
X014783Y018603D01*
X014933Y018753D01*
X015084Y018603D01*
X015311Y018509D01*
X015556Y018509D01*
X015783Y018603D01*
X015933Y018753D01*
X016084Y018603D01*
X016311Y018509D01*
X016556Y018509D01*
X016783Y018603D01*
X016956Y018776D01*
X016981Y018835D01*
X017024Y018776D01*
X017084Y018716D01*
X017152Y018666D01*
X017227Y018628D01*
X017308Y018602D01*
X017391Y018589D01*
X017415Y018589D01*
X017415Y019107D01*
X017452Y019107D01*
X017452Y018589D01*
X017476Y018589D01*
X017559Y018602D01*
X017639Y018628D01*
X017715Y018666D01*
X017783Y018716D01*
X017843Y018776D01*
X017886Y018835D01*
X017910Y018776D01*
X017953Y018733D01*
X017953Y017280D01*
X018026Y017104D01*
X018161Y016969D01*
X019578Y015552D01*
X019578Y005155D01*
X019651Y004979D01*
X019786Y004844D01*
X020616Y004014D01*
X020616Y002166D01*
X020614Y002165D01*
X020524Y002075D01*
X020476Y001958D01*
X020476Y001230D01*
X020524Y001113D01*
X020614Y001023D01*
X020732Y000974D01*
X021459Y000974D01*
X021577Y001023D01*
X021667Y001113D01*
X021716Y001230D01*
X021716Y001958D01*
X021667Y002075D01*
X021577Y002165D01*
X021576Y002166D01*
X021576Y004309D01*
X021503Y004485D01*
X020538Y005449D01*
X020538Y015846D01*
X020465Y016022D01*
X018913Y017574D01*
X018913Y018733D01*
X018956Y018776D01*
X019050Y019003D01*
X019050Y019189D01*
X019705Y019844D01*
X019840Y019979D01*
X019913Y020155D01*
X019913Y021283D01*
X020022Y021391D01*
X020118Y021624D01*
X020118Y021877D01*
X020022Y022110D01*
X019843Y022289D01*
X019610Y022386D01*
X019357Y022386D01*
X019124Y022289D01*
X018945Y022110D01*
X018891Y021981D01*
X018030Y021981D01*
X017959Y022152D01*
X017785Y022326D01*
X017557Y022421D01*
X017310Y022421D01*
X017082Y022326D01*
X016933Y022177D01*
X016913Y022197D01*
X016913Y022221D01*
X016840Y022397D01*
X015967Y023271D01*
X022078Y023271D01*
X022078Y000626D01*
X017683Y000626D01*
X017683Y009376D01*
X016901Y009376D01*
X016913Y009405D01*
X016913Y009733D01*
X016933Y009753D01*
X017084Y009603D01*
X017311Y009509D01*
X017556Y009509D01*
X017783Y009603D01*
X017933Y009753D01*
X018084Y009603D01*
X018311Y009509D01*
X018556Y009509D01*
X018783Y009603D01*
X018956Y009776D01*
X019050Y010003D01*
X019050Y010248D01*
X018956Y010475D01*
X018783Y010649D01*
X018556Y010742D01*
X018311Y010742D01*
X018084Y010649D01*
X017933Y010498D01*
X017783Y010649D01*
X017556Y010742D01*
X017311Y010742D01*
X017084Y010649D01*
X016933Y010498D01*
X016783Y010649D01*
X016556Y010742D01*
X016311Y010742D01*
X016084Y010649D01*
X015933Y010498D01*
X015913Y010518D01*
X015913Y010971D01*
X015840Y011147D01*
X014965Y012022D01*
X014830Y012158D01*
X014654Y012231D01*
X009007Y012231D01*
X008908Y012330D02*
X019578Y012330D01*
X019578Y012172D02*
X014796Y012172D01*
X014975Y012013D02*
X019578Y012013D01*
X019578Y011855D02*
X015133Y011855D01*
X015292Y011696D02*
X019578Y011696D01*
X019578Y011538D02*
X015450Y011538D01*
X015609Y011379D02*
X019578Y011379D01*
X019578Y011221D02*
X015767Y011221D01*
X015876Y011062D02*
X019578Y011062D01*
X019578Y010904D02*
X015913Y010904D01*
X015913Y010745D02*
X019578Y010745D01*
X019578Y010587D02*
X018845Y010587D01*
X018976Y010428D02*
X019578Y010428D01*
X019578Y010270D02*
X019041Y010270D01*
X019050Y010111D02*
X019578Y010111D01*
X019578Y009953D02*
X019029Y009953D01*
X018964Y009794D02*
X019578Y009794D01*
X019578Y009636D02*
X018816Y009636D01*
X018051Y009636D02*
X017816Y009636D01*
X017683Y009319D02*
X019578Y009319D01*
X019578Y009477D02*
X016913Y009477D01*
X016913Y009636D02*
X017051Y009636D01*
X017683Y009160D02*
X019578Y009160D01*
X019578Y009002D02*
X017683Y009002D01*
X017683Y008843D02*
X019578Y008843D01*
X019578Y008685D02*
X017683Y008685D01*
X017683Y008526D02*
X019578Y008526D01*
X019578Y008368D02*
X017683Y008368D01*
X017683Y008209D02*
X019578Y008209D01*
X019578Y008051D02*
X017683Y008051D01*
X017683Y007892D02*
X019578Y007892D01*
X019578Y007734D02*
X017683Y007734D01*
X017683Y007575D02*
X019578Y007575D01*
X019578Y007417D02*
X017683Y007417D01*
X017683Y007258D02*
X019578Y007258D01*
X019578Y007100D02*
X017683Y007100D01*
X017683Y006941D02*
X019578Y006941D01*
X019578Y006783D02*
X017683Y006783D01*
X017683Y006624D02*
X019578Y006624D01*
X019578Y006466D02*
X017683Y006466D01*
X017683Y006307D02*
X019578Y006307D01*
X019578Y006149D02*
X017683Y006149D01*
X017683Y005990D02*
X019578Y005990D01*
X019578Y005832D02*
X017683Y005832D01*
X017683Y005673D02*
X019578Y005673D01*
X019578Y005515D02*
X017683Y005515D01*
X017683Y005356D02*
X019578Y005356D01*
X019578Y005198D02*
X017683Y005198D01*
X017683Y005039D02*
X019626Y005039D01*
X019750Y004881D02*
X017683Y004881D01*
X017683Y004722D02*
X019908Y004722D01*
X020067Y004564D02*
X017683Y004564D01*
X017683Y004405D02*
X020225Y004405D01*
X020384Y004247D02*
X017683Y004247D01*
X017683Y004088D02*
X020542Y004088D01*
X020616Y003930D02*
X017683Y003930D01*
X017683Y003771D02*
X020616Y003771D01*
X020616Y003613D02*
X017683Y003613D01*
X017683Y003454D02*
X020616Y003454D01*
X020616Y003296D02*
X017683Y003296D01*
X017683Y003137D02*
X020616Y003137D01*
X020616Y002979D02*
X017683Y002979D01*
X017683Y002820D02*
X020616Y002820D01*
X020616Y002662D02*
X017683Y002662D01*
X017683Y002503D02*
X020616Y002503D01*
X020616Y002345D02*
X017683Y002345D01*
X017683Y002186D02*
X020616Y002186D01*
X020505Y002028D02*
X017683Y002028D01*
X017683Y001869D02*
X020476Y001869D01*
X020476Y001711D02*
X017683Y001711D01*
X017683Y001552D02*
X020476Y001552D01*
X020476Y001394D02*
X017683Y001394D01*
X017683Y001235D02*
X020476Y001235D01*
X020561Y001077D02*
X017683Y001077D01*
X017683Y000918D02*
X022078Y000918D01*
X022078Y000760D02*
X017683Y000760D01*
X021631Y001077D02*
X022078Y001077D01*
X022078Y001235D02*
X021716Y001235D01*
X021716Y001394D02*
X022078Y001394D01*
X022078Y001552D02*
X021716Y001552D01*
X021716Y001711D02*
X022078Y001711D01*
X022078Y001869D02*
X021716Y001869D01*
X021687Y002028D02*
X022078Y002028D01*
X022078Y002186D02*
X021576Y002186D01*
X021576Y002345D02*
X022078Y002345D01*
X022078Y002503D02*
X021576Y002503D01*
X021576Y002662D02*
X022078Y002662D01*
X022078Y002820D02*
X021576Y002820D01*
X021576Y002979D02*
X022078Y002979D01*
X022078Y003137D02*
X021576Y003137D01*
X021576Y003296D02*
X022078Y003296D01*
X022078Y003454D02*
X021576Y003454D01*
X021576Y003613D02*
X022078Y003613D01*
X022078Y003771D02*
X021576Y003771D01*
X021576Y003930D02*
X022078Y003930D01*
X022078Y004088D02*
X021576Y004088D01*
X021576Y004247D02*
X022078Y004247D01*
X022078Y004405D02*
X021536Y004405D01*
X021424Y004564D02*
X022078Y004564D01*
X022078Y004722D02*
X021266Y004722D01*
X021107Y004881D02*
X022078Y004881D01*
X022078Y005039D02*
X020949Y005039D01*
X020790Y005198D02*
X022078Y005198D01*
X022078Y005356D02*
X020632Y005356D01*
X020538Y005515D02*
X022078Y005515D01*
X022078Y005673D02*
X020538Y005673D01*
X020538Y005832D02*
X022078Y005832D01*
X022078Y005990D02*
X020538Y005990D01*
X020538Y006149D02*
X022078Y006149D01*
X022078Y006307D02*
X020538Y006307D01*
X020538Y006466D02*
X022078Y006466D01*
X022078Y006624D02*
X020538Y006624D01*
X020538Y006783D02*
X022078Y006783D01*
X022078Y006941D02*
X020538Y006941D01*
X020538Y007100D02*
X022078Y007100D01*
X022078Y007258D02*
X021615Y007258D01*
X021608Y007243D02*
X021627Y007287D01*
X021636Y007333D01*
X021636Y007637D01*
X021116Y007637D01*
X021116Y007677D01*
X021636Y007677D01*
X021636Y007981D01*
X021627Y008027D01*
X021608Y008071D01*
X021582Y008110D01*
X021549Y008144D01*
X021509Y008170D01*
X021466Y008188D01*
X021419Y008197D01*
X021116Y008197D01*
X021116Y007677D01*
X021076Y007677D01*
X021076Y008197D01*
X020772Y008197D01*
X020726Y008188D01*
X020682Y008170D01*
X020643Y008144D01*
X020609Y008110D01*
X020583Y008071D01*
X020565Y008027D01*
X020556Y007981D01*
X020556Y007677D01*
X021076Y007677D01*
X021076Y007637D01*
X021116Y007637D01*
X021116Y007117D01*
X021419Y007117D01*
X021466Y007126D01*
X021509Y007144D01*
X021549Y007171D01*
X021582Y007204D01*
X021608Y007243D01*
X021636Y007417D02*
X022078Y007417D01*
X022078Y007575D02*
X021636Y007575D01*
X021636Y007734D02*
X022078Y007734D01*
X022078Y007892D02*
X021636Y007892D01*
X021617Y008051D02*
X022078Y008051D01*
X022078Y008209D02*
X020538Y008209D01*
X020538Y008051D02*
X020575Y008051D01*
X020556Y007892D02*
X020538Y007892D01*
X020538Y007734D02*
X020556Y007734D01*
X020556Y007637D02*
X020556Y007333D01*
X020565Y007287D01*
X020583Y007243D01*
X020609Y007204D01*
X020643Y007171D01*
X020682Y007144D01*
X020726Y007126D01*
X020772Y007117D01*
X021076Y007117D01*
X021076Y007637D01*
X020556Y007637D01*
X020556Y007575D02*
X020538Y007575D01*
X020538Y007417D02*
X020556Y007417D01*
X020538Y007258D02*
X020577Y007258D01*
X021076Y007258D02*
X021116Y007258D01*
X021116Y007417D02*
X021076Y007417D01*
X021076Y007575D02*
X021116Y007575D01*
X021116Y007734D02*
X021076Y007734D01*
X021076Y007892D02*
X021116Y007892D01*
X021116Y008051D02*
X021076Y008051D01*
X020538Y008368D02*
X022078Y008368D01*
X022078Y008526D02*
X020538Y008526D01*
X020538Y008685D02*
X022078Y008685D01*
X022078Y008843D02*
X020538Y008843D01*
X020538Y009002D02*
X022078Y009002D01*
X022078Y009160D02*
X020538Y009160D01*
X020538Y009319D02*
X022078Y009319D01*
X022078Y009477D02*
X020538Y009477D01*
X020538Y009636D02*
X022078Y009636D01*
X022078Y009794D02*
X020538Y009794D01*
X020538Y009953D02*
X022078Y009953D01*
X022078Y010111D02*
X020538Y010111D01*
X020538Y010270D02*
X022078Y010270D01*
X022078Y010428D02*
X020538Y010428D01*
X020538Y010587D02*
X022078Y010587D01*
X022078Y010745D02*
X020538Y010745D01*
X020538Y010904D02*
X022078Y010904D01*
X022078Y011062D02*
X020538Y011062D01*
X020538Y011221D02*
X022078Y011221D01*
X022078Y011379D02*
X020538Y011379D01*
X020538Y011538D02*
X022078Y011538D01*
X022078Y011696D02*
X020538Y011696D01*
X020538Y011855D02*
X022078Y011855D01*
X022078Y012013D02*
X020538Y012013D01*
X020538Y012172D02*
X022078Y012172D01*
X022078Y012330D02*
X020538Y012330D01*
X020538Y012489D02*
X022078Y012489D01*
X022078Y012647D02*
X020538Y012647D01*
X020538Y012806D02*
X022078Y012806D01*
X022078Y012964D02*
X020538Y012964D01*
X020538Y013123D02*
X022078Y013123D01*
X022078Y013281D02*
X020538Y013281D01*
X020538Y013440D02*
X022078Y013440D01*
X022078Y013598D02*
X020538Y013598D01*
X020538Y013757D02*
X022078Y013757D01*
X022078Y013915D02*
X020538Y013915D01*
X020538Y014074D02*
X022078Y014074D01*
X022078Y014232D02*
X020538Y014232D01*
X020538Y014391D02*
X022078Y014391D01*
X022078Y014549D02*
X020538Y014549D01*
X020538Y014708D02*
X022078Y014708D01*
X022078Y014866D02*
X020538Y014866D01*
X020538Y015025D02*
X022078Y015025D01*
X022078Y015183D02*
X020538Y015183D01*
X020538Y015342D02*
X022078Y015342D01*
X022078Y015500D02*
X020538Y015500D01*
X020538Y015659D02*
X022078Y015659D01*
X022078Y015817D02*
X020538Y015817D01*
X020485Y015976D02*
X022078Y015976D01*
X022078Y016134D02*
X020354Y016134D01*
X020195Y016293D02*
X022078Y016293D01*
X022078Y016451D02*
X020037Y016451D01*
X019878Y016610D02*
X022078Y016610D01*
X022078Y016768D02*
X019720Y016768D01*
X019561Y016927D02*
X022078Y016927D01*
X022078Y017085D02*
X019403Y017085D01*
X019244Y017244D02*
X022078Y017244D01*
X022078Y017402D02*
X019086Y017402D01*
X018927Y017561D02*
X022078Y017561D01*
X022078Y017719D02*
X018913Y017719D01*
X018913Y017878D02*
X022078Y017878D01*
X022078Y018036D02*
X018913Y018036D01*
X018913Y018195D02*
X022078Y018195D01*
X022078Y018353D02*
X018913Y018353D01*
X018913Y018512D02*
X022078Y018512D01*
X022078Y018670D02*
X018913Y018670D01*
X018978Y018829D02*
X022078Y018829D01*
X022078Y018987D02*
X019044Y018987D01*
X019050Y019146D02*
X022078Y019146D01*
X022078Y019304D02*
X019166Y019304D01*
X019324Y019463D02*
X022078Y019463D01*
X022078Y019621D02*
X019483Y019621D01*
X019641Y019780D02*
X022078Y019780D01*
X022078Y019938D02*
X019800Y019938D01*
X019889Y020097D02*
X022078Y020097D01*
X022078Y020255D02*
X019913Y020255D01*
X019913Y020414D02*
X022078Y020414D01*
X022078Y020572D02*
X019913Y020572D01*
X019913Y020731D02*
X022078Y020731D01*
X022078Y020889D02*
X019913Y020889D01*
X019913Y021048D02*
X022078Y021048D01*
X022078Y021206D02*
X021124Y021206D01*
X021113Y021196D02*
X021438Y021521D01*
X021438Y021751D01*
X021438Y021980D01*
X021113Y022306D01*
X020883Y022306D01*
X020653Y022306D01*
X020328Y021980D01*
X020328Y021751D01*
X020883Y021751D01*
X020883Y022306D01*
X020883Y021751D01*
X020883Y021751D01*
X020883Y021751D01*
X020328Y021751D01*
X020328Y021521D01*
X020653Y021196D01*
X020883Y021196D01*
X020883Y021751D01*
X021438Y021751D01*
X020883Y021751D01*
X020883Y021751D01*
X020883Y021751D01*
X020883Y021196D01*
X021113Y021196D01*
X020883Y021206D02*
X020883Y021206D01*
X020883Y021365D02*
X020883Y021365D01*
X020883Y021523D02*
X020883Y021523D01*
X020883Y021682D02*
X020883Y021682D01*
X020883Y021840D02*
X020883Y021840D01*
X020883Y021999D02*
X020883Y021999D01*
X020883Y022157D02*
X020883Y022157D01*
X020505Y022157D02*
X019975Y022157D01*
X020068Y021999D02*
X020346Y021999D01*
X020328Y021840D02*
X020118Y021840D01*
X020118Y021682D02*
X020328Y021682D01*
X020328Y021523D02*
X020076Y021523D01*
X019995Y021365D02*
X020484Y021365D01*
X020643Y021206D02*
X019913Y021206D01*
X018953Y021021D02*
X018953Y020449D01*
X018201Y019697D01*
X018084Y019649D01*
X017910Y019475D01*
X017886Y019416D01*
X017843Y019475D01*
X017783Y019535D01*
X017715Y019585D01*
X017639Y019623D01*
X017559Y019649D01*
X017476Y019662D01*
X017452Y019662D01*
X017452Y019144D01*
X017415Y019144D01*
X017415Y019662D01*
X017391Y019662D01*
X017308Y019649D01*
X017227Y019623D01*
X017152Y019585D01*
X017084Y019535D01*
X017024Y019475D01*
X016981Y019416D01*
X016956Y019475D01*
X016913Y019518D01*
X016913Y019721D01*
X016840Y019897D01*
X016705Y020033D01*
X015924Y020814D01*
X015933Y020824D01*
X016082Y020675D01*
X016310Y020581D01*
X016557Y020581D01*
X016785Y020675D01*
X016933Y020824D01*
X017082Y020675D01*
X017310Y020581D01*
X017557Y020581D01*
X017785Y020675D01*
X017959Y020849D01*
X018030Y021021D01*
X018953Y021021D01*
X018953Y020889D02*
X017975Y020889D01*
X017840Y020731D02*
X018953Y020731D01*
X018953Y020572D02*
X016166Y020572D01*
X016026Y020731D02*
X016007Y020731D01*
X016324Y020414D02*
X018918Y020414D01*
X018759Y020255D02*
X016483Y020255D01*
X016641Y020097D02*
X018601Y020097D01*
X018442Y019938D02*
X016800Y019938D01*
X016889Y019780D02*
X018284Y019780D01*
X018057Y019621D02*
X017643Y019621D01*
X017452Y019621D02*
X017415Y019621D01*
X017415Y019463D02*
X017452Y019463D01*
X017452Y019304D02*
X017415Y019304D01*
X017415Y019146D02*
X017452Y019146D01*
X017452Y018987D02*
X017415Y018987D01*
X017415Y018829D02*
X017452Y018829D01*
X017452Y018670D02*
X017415Y018670D01*
X017147Y018670D02*
X016850Y018670D01*
X016978Y018829D02*
X016986Y018829D01*
X016563Y018512D02*
X017953Y018512D01*
X017953Y018670D02*
X017720Y018670D01*
X017881Y018829D02*
X017889Y018829D01*
X017953Y018353D02*
X007683Y018353D01*
X007683Y018512D02*
X011304Y018512D01*
X011563Y018512D02*
X012304Y018512D01*
X012563Y018512D02*
X013304Y018512D01*
X013563Y018512D02*
X014304Y018512D01*
X014563Y018512D02*
X015304Y018512D01*
X015563Y018512D02*
X016304Y018512D01*
X016016Y018670D02*
X015850Y018670D01*
X015016Y018670D02*
X014850Y018670D01*
X014016Y018670D02*
X013850Y018670D01*
X013016Y018670D02*
X012850Y018670D01*
X012016Y018670D02*
X011850Y018670D01*
X011810Y019621D02*
X012057Y019621D01*
X011859Y020255D02*
X010232Y020255D01*
X009385Y020255D02*
X006288Y020255D01*
X006288Y020097D02*
X015283Y020097D01*
X015125Y020255D02*
X012508Y020255D01*
X012667Y020414D02*
X015002Y020414D01*
X014953Y020572D02*
X012763Y020572D01*
X012763Y020731D02*
X014026Y020731D01*
X013891Y020889D02*
X012763Y020889D01*
X012203Y021840D02*
X012051Y021840D01*
X011892Y021999D02*
X012361Y021999D01*
X013006Y021999D02*
X013844Y021999D01*
X013913Y022157D02*
X006269Y022157D01*
X006427Y022316D02*
X014072Y022316D01*
X014795Y022316D02*
X015072Y022316D01*
X015406Y022474D02*
X006586Y022474D01*
X006110Y021999D02*
X011474Y021999D01*
X011683Y021999D02*
X011683Y021999D01*
X011683Y021840D02*
X011683Y021840D01*
X011683Y021682D02*
X011683Y021682D01*
X011683Y021523D02*
X011683Y021523D01*
X011316Y021840D02*
X005952Y021840D01*
X005793Y021682D02*
X011183Y021682D01*
X011183Y021523D02*
X005635Y021523D01*
X005503Y021365D02*
X005476Y021365D01*
X005345Y021206D02*
X005318Y021206D01*
X006114Y021365D02*
X009503Y021365D01*
X009345Y021206D02*
X006272Y021206D01*
X006431Y021048D02*
X009186Y021048D01*
X009158Y020889D02*
X006458Y020889D01*
X006458Y020731D02*
X009158Y020731D01*
X009158Y020572D02*
X006458Y020572D01*
X006391Y020414D02*
X009226Y020414D01*
X010114Y021365D02*
X011183Y021365D01*
X011057Y019621D02*
X006367Y019621D01*
X006288Y019780D02*
X015600Y019780D01*
X015442Y019938D02*
X006288Y019938D01*
X006525Y019463D02*
X010905Y019463D01*
X010840Y019304D02*
X006684Y019304D01*
X007683Y019146D02*
X010816Y019146D01*
X010823Y018987D02*
X007683Y018987D01*
X007683Y018829D02*
X010889Y018829D01*
X011016Y018670D02*
X007683Y018670D01*
X007793Y018195D02*
X017953Y018195D01*
X017953Y018036D02*
X007886Y018036D01*
X007913Y017878D02*
X017953Y017878D01*
X017953Y017719D02*
X007913Y017719D01*
X007913Y017561D02*
X017953Y017561D01*
X017953Y017402D02*
X007913Y017402D01*
X007913Y017244D02*
X017968Y017244D01*
X018045Y017085D02*
X007913Y017085D01*
X007913Y016927D02*
X018203Y016927D01*
X018362Y016768D02*
X007913Y016768D01*
X007913Y016610D02*
X018520Y016610D01*
X018679Y016451D02*
X007913Y016451D01*
X007913Y016293D02*
X018837Y016293D01*
X018996Y016134D02*
X007913Y016134D01*
X007913Y015976D02*
X019154Y015976D01*
X019313Y015817D02*
X007913Y015817D01*
X007913Y015659D02*
X019471Y015659D01*
X019578Y015500D02*
X007913Y015500D01*
X007913Y015342D02*
X019578Y015342D01*
X019578Y015183D02*
X007913Y015183D01*
X007913Y015025D02*
X019578Y015025D01*
X019578Y014866D02*
X007913Y014866D01*
X007913Y014708D02*
X019578Y014708D01*
X019578Y014549D02*
X007913Y014549D01*
X007913Y014391D02*
X019578Y014391D01*
X019578Y014232D02*
X007913Y014232D01*
X007913Y014074D02*
X019578Y014074D01*
X019578Y013915D02*
X007913Y013915D01*
X007913Y013757D02*
X019578Y013757D01*
X019578Y013598D02*
X007913Y013598D01*
X007913Y013440D02*
X019578Y013440D01*
X019578Y013281D02*
X007957Y013281D01*
X008115Y013123D02*
X019578Y013123D01*
X019578Y012964D02*
X008274Y012964D01*
X008432Y012806D02*
X019578Y012806D01*
X019578Y012647D02*
X008591Y012647D01*
X008749Y012489D02*
X019578Y012489D01*
X018022Y010587D02*
X017845Y010587D01*
X017022Y010587D02*
X016845Y010587D01*
X016022Y010587D02*
X015913Y010587D01*
X016961Y019463D02*
X017015Y019463D01*
X016913Y019621D02*
X017223Y019621D01*
X017852Y019463D02*
X017905Y019463D01*
X017026Y020731D02*
X016840Y020731D01*
X018022Y021999D02*
X018899Y021999D01*
X018992Y022157D02*
X017954Y022157D01*
X017795Y022316D02*
X019188Y022316D01*
X019779Y022316D02*
X022078Y022316D01*
X022078Y022474D02*
X016764Y022474D01*
X016874Y022316D02*
X017072Y022316D01*
X016605Y022633D02*
X022078Y022633D01*
X022078Y022791D02*
X016447Y022791D01*
X016288Y022950D02*
X022078Y022950D01*
X022078Y023108D02*
X016130Y023108D01*
X015971Y023267D02*
X022078Y023267D01*
X022078Y022157D02*
X021262Y022157D01*
X021420Y021999D02*
X022078Y021999D01*
X022078Y021840D02*
X021438Y021840D01*
X021438Y021682D02*
X022078Y021682D01*
X022078Y021523D02*
X021438Y021523D01*
X021282Y021365D02*
X022078Y021365D01*
X014953Y020731D02*
X014840Y020731D01*
X014810Y019621D02*
X015057Y019621D01*
X014057Y019621D02*
X013810Y019621D01*
X013057Y019621D02*
X012810Y019621D01*
M02*
