G75*
G70*
%OFA0B0*%
%FSLAX24Y24*%
%IPPOS*%
%LPD*%
%AMOC8*
5,1,8,0,0,1.08239X$1,22.5*
%
%ADD10C,0.0000*%
%ADD11C,0.0051*%
%ADD12C,0.0060*%
%ADD13C,0.0040*%
%ADD14C,0.0050*%
%ADD15C,0.0020*%
%ADD16R,0.0450X0.0250*%
%ADD17R,0.0200X0.1750*%
%ADD18R,0.0200X0.3200*%
%ADD19R,0.0050X0.1250*%
%ADD20R,0.0200X0.1600*%
%ADD21C,0.0080*%
%ADD22C,0.0030*%
%ADD23R,0.0340X0.0240*%
%ADD24C,0.0100*%
%ADD25C,0.0070*%
D10*
X000183Y000126D02*
X000183Y023751D01*
X022558Y023751D01*
X022558Y000126D01*
X000183Y000126D01*
X006058Y010001D02*
X006060Y010045D01*
X006066Y010089D01*
X006076Y010132D01*
X006089Y010174D01*
X006106Y010215D01*
X006127Y010254D01*
X006151Y010291D01*
X006178Y010326D01*
X006208Y010358D01*
X006241Y010388D01*
X006277Y010414D01*
X006314Y010438D01*
X006354Y010457D01*
X006395Y010474D01*
X006438Y010486D01*
X006481Y010495D01*
X006525Y010500D01*
X006569Y010501D01*
X006613Y010498D01*
X006657Y010491D01*
X006700Y010480D01*
X006742Y010466D01*
X006782Y010448D01*
X006821Y010426D01*
X006857Y010402D01*
X006891Y010374D01*
X006923Y010343D01*
X006952Y010309D01*
X006978Y010273D01*
X007000Y010235D01*
X007019Y010195D01*
X007034Y010153D01*
X007046Y010111D01*
X007054Y010067D01*
X007058Y010023D01*
X007058Y009979D01*
X007054Y009935D01*
X007046Y009891D01*
X007034Y009849D01*
X007019Y009807D01*
X007000Y009767D01*
X006978Y009729D01*
X006952Y009693D01*
X006923Y009659D01*
X006891Y009628D01*
X006857Y009600D01*
X006821Y009576D01*
X006782Y009554D01*
X006742Y009536D01*
X006700Y009522D01*
X006657Y009511D01*
X006613Y009504D01*
X006569Y009501D01*
X006525Y009502D01*
X006481Y009507D01*
X006438Y009516D01*
X006395Y009528D01*
X006354Y009545D01*
X006314Y009564D01*
X006277Y009588D01*
X006241Y009614D01*
X006208Y009644D01*
X006178Y009676D01*
X006151Y009711D01*
X006127Y009748D01*
X006106Y009787D01*
X006089Y009828D01*
X006076Y009870D01*
X006066Y009913D01*
X006060Y009957D01*
X006058Y010001D01*
X000933Y022376D02*
X000935Y022420D01*
X000941Y022464D01*
X000951Y022507D01*
X000964Y022549D01*
X000981Y022590D01*
X001002Y022629D01*
X001026Y022666D01*
X001053Y022701D01*
X001083Y022733D01*
X001116Y022763D01*
X001152Y022789D01*
X001189Y022813D01*
X001229Y022832D01*
X001270Y022849D01*
X001313Y022861D01*
X001356Y022870D01*
X001400Y022875D01*
X001444Y022876D01*
X001488Y022873D01*
X001532Y022866D01*
X001575Y022855D01*
X001617Y022841D01*
X001657Y022823D01*
X001696Y022801D01*
X001732Y022777D01*
X001766Y022749D01*
X001798Y022718D01*
X001827Y022684D01*
X001853Y022648D01*
X001875Y022610D01*
X001894Y022570D01*
X001909Y022528D01*
X001921Y022486D01*
X001929Y022442D01*
X001933Y022398D01*
X001933Y022354D01*
X001929Y022310D01*
X001921Y022266D01*
X001909Y022224D01*
X001894Y022182D01*
X001875Y022142D01*
X001853Y022104D01*
X001827Y022068D01*
X001798Y022034D01*
X001766Y022003D01*
X001732Y021975D01*
X001696Y021951D01*
X001657Y021929D01*
X001617Y021911D01*
X001575Y021897D01*
X001532Y021886D01*
X001488Y021879D01*
X001444Y021876D01*
X001400Y021877D01*
X001356Y021882D01*
X001313Y021891D01*
X001270Y021903D01*
X001229Y021920D01*
X001189Y021939D01*
X001152Y021963D01*
X001116Y021989D01*
X001083Y022019D01*
X001053Y022051D01*
X001026Y022086D01*
X001002Y022123D01*
X000981Y022162D01*
X000964Y022203D01*
X000951Y022245D01*
X000941Y022288D01*
X000935Y022332D01*
X000933Y022376D01*
D11*
X000183Y023751D02*
X000183Y026518D01*
X000183Y025751D02*
X001207Y025648D01*
X001207Y025625D02*
X000183Y025751D01*
X001207Y025853D01*
X001207Y025876D02*
X001207Y025625D01*
X001207Y025699D02*
X000183Y025751D01*
X001207Y025802D01*
X001207Y025876D02*
X000183Y025751D01*
X022558Y025751D01*
X021535Y025648D01*
X021535Y025625D02*
X022558Y025751D01*
X021535Y025853D01*
X021535Y025876D02*
X021535Y025625D01*
X021535Y025699D02*
X022558Y025751D01*
X021535Y025802D01*
X021535Y025876D02*
X022558Y025751D01*
X022558Y026518D02*
X022558Y023751D01*
X025076Y023751D01*
X024308Y023751D02*
X024411Y022727D01*
X024434Y022727D02*
X024308Y023751D01*
X024206Y022727D01*
X024183Y022727D02*
X024434Y022727D01*
X024360Y022727D02*
X024308Y023751D01*
X024257Y022727D01*
X024183Y022727D02*
X024308Y023751D01*
X024308Y000126D01*
X024411Y001149D01*
X024434Y001149D02*
X024308Y000126D01*
X024206Y001149D01*
X024183Y001149D02*
X024434Y001149D01*
X024360Y001149D02*
X024308Y000126D01*
X024257Y001149D01*
X024183Y001149D02*
X024308Y000126D01*
X025076Y000126D02*
X022558Y000126D01*
D12*
X023732Y010712D02*
X023732Y011032D01*
X023839Y011139D01*
X023945Y011139D01*
X024052Y011032D01*
X024052Y010819D01*
X023945Y010712D01*
X023732Y010712D01*
X023518Y010925D01*
X023412Y011139D01*
X023518Y011356D02*
X023412Y011463D01*
X023412Y011677D01*
X023518Y011783D01*
X023945Y011356D01*
X024052Y011463D01*
X024052Y011677D01*
X023945Y011783D01*
X023518Y011783D01*
X023518Y011356D02*
X023945Y011356D01*
X023945Y012001D02*
X023945Y012108D01*
X024052Y012108D01*
X024052Y012001D01*
X023945Y012001D01*
X023945Y012323D02*
X023518Y012750D01*
X023945Y012750D01*
X024052Y012643D01*
X024052Y012430D01*
X023945Y012323D01*
X023518Y012323D01*
X023412Y012430D01*
X023412Y012643D01*
X023518Y012750D01*
X023625Y012968D02*
X023412Y013181D01*
X024052Y013181D01*
X024052Y012968D02*
X024052Y013395D01*
X018583Y021751D02*
X018585Y021831D01*
X018591Y021910D01*
X018601Y021989D01*
X018615Y022068D01*
X018632Y022146D01*
X018654Y022223D01*
X018679Y022298D01*
X018709Y022372D01*
X018741Y022445D01*
X018778Y022516D01*
X018818Y022585D01*
X018861Y022652D01*
X018908Y022717D01*
X018957Y022779D01*
X019010Y022839D01*
X019066Y022896D01*
X019124Y022951D01*
X019185Y023002D01*
X019249Y023050D01*
X019315Y023095D01*
X019383Y023137D01*
X019453Y023175D01*
X019525Y023209D01*
X019598Y023240D01*
X019673Y023268D01*
X019750Y023291D01*
X019827Y023311D01*
X019905Y023327D01*
X019984Y023339D01*
X020063Y023347D01*
X020143Y023351D01*
X020223Y023351D01*
X020303Y023347D01*
X020382Y023339D01*
X020461Y023327D01*
X020539Y023311D01*
X020616Y023291D01*
X020693Y023268D01*
X020768Y023240D01*
X020841Y023209D01*
X020913Y023175D01*
X020983Y023137D01*
X021051Y023095D01*
X021117Y023050D01*
X021181Y023002D01*
X021242Y022951D01*
X021300Y022896D01*
X021356Y022839D01*
X021409Y022779D01*
X021458Y022717D01*
X021505Y022652D01*
X021548Y022585D01*
X021588Y022516D01*
X021625Y022445D01*
X021657Y022372D01*
X021687Y022298D01*
X021712Y022223D01*
X021734Y022146D01*
X021751Y022068D01*
X021765Y021989D01*
X021775Y021910D01*
X021781Y021831D01*
X021783Y021751D01*
X021781Y021671D01*
X021775Y021592D01*
X021765Y021513D01*
X021751Y021434D01*
X021734Y021356D01*
X021712Y021279D01*
X021687Y021204D01*
X021657Y021130D01*
X021625Y021057D01*
X021588Y020986D01*
X021548Y020917D01*
X021505Y020850D01*
X021458Y020785D01*
X021409Y020723D01*
X021356Y020663D01*
X021300Y020606D01*
X021242Y020551D01*
X021181Y020500D01*
X021117Y020452D01*
X021051Y020407D01*
X020983Y020365D01*
X020913Y020327D01*
X020841Y020293D01*
X020768Y020262D01*
X020693Y020234D01*
X020616Y020211D01*
X020539Y020191D01*
X020461Y020175D01*
X020382Y020163D01*
X020303Y020155D01*
X020223Y020151D01*
X020143Y020151D01*
X020063Y020155D01*
X019984Y020163D01*
X019905Y020175D01*
X019827Y020191D01*
X019750Y020211D01*
X019673Y020234D01*
X019598Y020262D01*
X019525Y020293D01*
X019453Y020327D01*
X019383Y020365D01*
X019315Y020407D01*
X019249Y020452D01*
X019185Y020500D01*
X019124Y020551D01*
X019066Y020606D01*
X019010Y020663D01*
X018957Y020723D01*
X018908Y020785D01*
X018861Y020850D01*
X018818Y020917D01*
X018778Y020986D01*
X018741Y021057D01*
X018709Y021130D01*
X018679Y021204D01*
X018654Y021279D01*
X018632Y021356D01*
X018615Y021434D01*
X018601Y021513D01*
X018591Y021592D01*
X018585Y021671D01*
X018583Y021751D01*
X018983Y022051D02*
X018983Y022351D01*
X018833Y022201D02*
X019133Y022201D01*
X015503Y016480D02*
X015503Y016267D01*
X015503Y016374D02*
X015076Y016374D01*
X015076Y016267D01*
X014863Y016374D02*
X014756Y016374D01*
X015076Y015943D02*
X015183Y016049D01*
X015503Y016049D01*
X015503Y015622D02*
X015076Y015622D01*
X015076Y015943D01*
X015503Y015406D02*
X015503Y015193D01*
X015503Y015299D02*
X015076Y015299D01*
X015076Y015193D01*
X014863Y015299D02*
X014756Y015299D01*
X015076Y014868D02*
X015183Y014975D01*
X015503Y014975D01*
X015503Y014762D02*
X015183Y014762D01*
X015076Y014868D01*
X015183Y014762D02*
X015076Y014655D01*
X015076Y014548D01*
X015503Y014548D01*
X015503Y013686D02*
X015503Y013259D01*
X015503Y013473D02*
X014863Y013473D01*
X015076Y013259D01*
X014970Y013042D02*
X014863Y012935D01*
X014863Y012615D01*
X015503Y012615D01*
X015503Y012935D01*
X015397Y013042D01*
X014970Y013042D01*
X008958Y020301D02*
X008808Y020301D01*
X008758Y020351D01*
X006858Y020351D01*
X006808Y020301D01*
X006658Y020301D01*
X006641Y020303D01*
X006624Y020307D01*
X006608Y020314D01*
X006594Y020324D01*
X006581Y020337D01*
X006571Y020351D01*
X006564Y020367D01*
X006560Y020384D01*
X006558Y020401D01*
X006558Y021101D01*
X006560Y021118D01*
X006564Y021135D01*
X006571Y021151D01*
X006581Y021165D01*
X006594Y021178D01*
X006608Y021188D01*
X006624Y021195D01*
X006641Y021199D01*
X006658Y021201D01*
X006808Y021201D01*
X006858Y021151D01*
X008758Y021151D01*
X008808Y021201D01*
X008958Y021201D01*
X008975Y021199D01*
X008992Y021195D01*
X009008Y021188D01*
X009022Y021178D01*
X009035Y021165D01*
X009045Y021151D01*
X009052Y021135D01*
X009056Y021118D01*
X009058Y021101D01*
X009058Y020401D01*
X009056Y020384D01*
X009052Y020367D01*
X009045Y020351D01*
X009035Y020337D01*
X009022Y020324D01*
X009008Y020314D01*
X008992Y020307D01*
X008975Y020303D01*
X008958Y020301D01*
X004383Y016726D02*
X004383Y016476D01*
X004283Y016476D01*
X003933Y016476D01*
X003933Y014726D01*
X004383Y014726D01*
X004383Y016476D01*
X004283Y016476D02*
X004283Y016626D01*
X003733Y016626D01*
X003733Y016726D02*
X004383Y016726D01*
X002133Y016726D02*
X001483Y016726D01*
X001483Y016476D01*
X001483Y014726D01*
X001933Y014726D01*
X001933Y016476D01*
X001583Y016476D01*
X001583Y016626D01*
X002133Y016626D01*
X001583Y016476D02*
X001483Y016476D01*
X002933Y013676D02*
X002933Y011076D01*
X001933Y010026D02*
X001483Y010026D01*
X001483Y008276D01*
X001483Y008026D01*
X002133Y008026D01*
X002133Y008126D02*
X001583Y008126D01*
X001583Y008276D01*
X001933Y008276D01*
X001933Y010026D01*
X001583Y008276D02*
X001483Y008276D01*
X003733Y008126D02*
X004283Y008126D01*
X004283Y008276D01*
X003933Y008276D01*
X003933Y010026D01*
X004383Y010026D01*
X004383Y008276D01*
X004383Y008026D01*
X003733Y008026D01*
X004283Y008276D02*
X004383Y008276D01*
X005908Y007376D02*
X005908Y003326D01*
X005658Y002926D02*
X005658Y005126D01*
X005660Y005156D01*
X005665Y005186D01*
X005674Y005215D01*
X005687Y005242D01*
X005702Y005268D01*
X005721Y005292D01*
X005742Y005313D01*
X005766Y005332D01*
X005792Y005347D01*
X005819Y005360D01*
X005848Y005369D01*
X005878Y005374D01*
X005908Y005376D01*
X007708Y005426D02*
X007708Y001376D01*
X007706Y001346D01*
X007701Y001316D01*
X007692Y001287D01*
X007679Y001260D01*
X007664Y001234D01*
X007645Y001210D01*
X007624Y001189D01*
X007600Y001170D01*
X007574Y001155D01*
X007547Y001142D01*
X007518Y001133D01*
X007488Y001128D01*
X007458Y001126D01*
X006158Y001126D01*
X006128Y001128D01*
X006098Y001133D01*
X006069Y001142D01*
X006042Y001155D01*
X006016Y001170D01*
X005992Y001189D01*
X005971Y001210D01*
X005952Y001234D01*
X005937Y001260D01*
X005924Y001287D01*
X005915Y001316D01*
X005910Y001346D01*
X005908Y001376D01*
X005908Y002426D01*
X007708Y003376D02*
X007738Y003378D01*
X007768Y003383D01*
X007797Y003392D01*
X007824Y003405D01*
X007850Y003420D01*
X007874Y003439D01*
X007895Y003460D01*
X007914Y003484D01*
X007929Y003510D01*
X007942Y003537D01*
X007951Y003566D01*
X007956Y003596D01*
X007958Y003626D01*
X007958Y005826D01*
X007708Y006326D02*
X007708Y007376D01*
X007706Y007406D01*
X007701Y007436D01*
X007692Y007465D01*
X007679Y007492D01*
X007664Y007518D01*
X007645Y007542D01*
X007624Y007563D01*
X007600Y007582D01*
X007574Y007597D01*
X007547Y007610D01*
X007518Y007619D01*
X007488Y007624D01*
X007458Y007626D01*
X006158Y007626D01*
X006128Y007624D01*
X006098Y007619D01*
X006069Y007610D01*
X006042Y007597D01*
X006016Y007582D01*
X005992Y007563D01*
X005971Y007542D01*
X005952Y007518D01*
X005937Y007492D01*
X005924Y007465D01*
X005915Y007436D01*
X005910Y007406D01*
X005908Y007376D01*
X010251Y026007D02*
X010145Y026114D01*
X010251Y026007D02*
X010465Y026007D01*
X010572Y026114D01*
X010572Y026327D01*
X010465Y026434D01*
X010358Y026434D01*
X010145Y026327D01*
X010145Y026647D01*
X010572Y026647D01*
X010789Y026327D02*
X011109Y026327D01*
X011216Y026220D01*
X011216Y026114D01*
X011109Y026007D01*
X010896Y026007D01*
X010789Y026114D01*
X010789Y026327D01*
X011003Y026541D01*
X011216Y026647D01*
X011756Y026541D02*
X011756Y026434D01*
X011863Y026327D01*
X012076Y026327D01*
X012183Y026220D01*
X012183Y026114D01*
X012076Y026007D01*
X011863Y026007D01*
X011756Y026114D01*
X011756Y026220D01*
X011863Y026327D01*
X012076Y026327D02*
X012183Y026434D01*
X012183Y026541D01*
X012076Y026647D01*
X011863Y026647D01*
X011756Y026541D01*
X011540Y026114D02*
X011540Y026007D01*
X011434Y026007D01*
X011434Y026114D01*
X011540Y026114D01*
X012400Y026114D02*
X012507Y026007D01*
X012721Y026007D01*
X012827Y026114D01*
X012827Y026220D01*
X012721Y026327D01*
X012614Y026327D01*
X012721Y026327D02*
X012827Y026434D01*
X012827Y026541D01*
X012721Y026647D01*
X012507Y026647D01*
X012400Y026541D01*
D13*
X017326Y020191D02*
X017446Y020191D01*
X017386Y020191D02*
X017386Y019891D01*
X017326Y019831D01*
X017266Y019831D01*
X017206Y019891D01*
X017574Y019831D02*
X017815Y019831D01*
X017695Y019831D02*
X017695Y020191D01*
X017574Y020071D01*
X016684Y018406D02*
X016453Y018176D01*
X016760Y018176D01*
X016684Y017946D02*
X016684Y018406D01*
X016300Y018329D02*
X016300Y018022D01*
X016223Y017946D01*
X015993Y017946D01*
X015993Y018406D01*
X016223Y018406D01*
X016300Y018329D01*
X015760Y018329D02*
X015760Y018253D01*
X015684Y018176D01*
X015760Y018099D01*
X015760Y018022D01*
X015684Y017946D01*
X015530Y017946D01*
X015453Y018022D01*
X015300Y018022D02*
X015300Y018329D01*
X015223Y018406D01*
X014993Y018406D01*
X014993Y017946D01*
X015223Y017946D01*
X015300Y018022D01*
X015607Y018176D02*
X015684Y018176D01*
X015760Y018329D02*
X015684Y018406D01*
X015530Y018406D01*
X015453Y018329D01*
X014760Y018329D02*
X014684Y018406D01*
X014530Y018406D01*
X014453Y018329D01*
X014300Y018329D02*
X014300Y018022D01*
X014223Y017946D01*
X013993Y017946D01*
X013993Y018406D01*
X014223Y018406D01*
X014300Y018329D01*
X014453Y017946D02*
X014760Y018253D01*
X014760Y018329D01*
X014760Y017946D02*
X014453Y017946D01*
X013760Y017946D02*
X013453Y017946D01*
X013607Y017946D02*
X013607Y018406D01*
X013453Y018253D01*
X013300Y018329D02*
X013300Y018022D01*
X013223Y017946D01*
X012993Y017946D01*
X012993Y018406D01*
X013223Y018406D01*
X013300Y018329D01*
X012760Y018406D02*
X012453Y017946D01*
X012300Y017946D02*
X012146Y018099D01*
X012223Y018099D02*
X011993Y018099D01*
X011993Y017946D02*
X011993Y018406D01*
X012223Y018406D01*
X012300Y018329D01*
X012300Y018176D01*
X012223Y018099D01*
X012453Y018406D02*
X012760Y017946D01*
X011760Y017946D02*
X011453Y018406D01*
X011300Y018406D02*
X010993Y018406D01*
X011146Y018406D02*
X011146Y017946D01*
X011453Y017946D02*
X011760Y018406D01*
X009365Y018759D02*
X008751Y018759D01*
X008828Y018683D02*
X008905Y018606D01*
X008981Y018606D01*
X009058Y018683D01*
X009058Y018836D01*
X009135Y018913D01*
X009212Y018913D01*
X009288Y018836D01*
X009288Y018683D01*
X009212Y018606D01*
X009212Y018453D02*
X008828Y018453D01*
X008828Y018683D02*
X008828Y018836D01*
X008905Y018913D01*
X008981Y019066D02*
X008828Y019220D01*
X009288Y019220D01*
X009288Y019373D02*
X009288Y019066D01*
X009212Y018453D02*
X009288Y018376D01*
X009288Y018222D01*
X009212Y018146D01*
X008828Y018146D01*
X010563Y011306D02*
X010793Y011306D01*
X010870Y011229D01*
X010870Y011076D01*
X010793Y010999D01*
X010563Y010999D01*
X010716Y010999D02*
X010870Y010846D01*
X011023Y010922D02*
X011100Y010846D01*
X011253Y010846D01*
X011330Y010922D01*
X011330Y010999D01*
X011253Y011076D01*
X011100Y011076D01*
X011023Y011153D01*
X011023Y011229D01*
X011100Y011306D01*
X011253Y011306D01*
X011330Y011229D01*
X011484Y011306D02*
X011790Y011306D01*
X011637Y011306D02*
X011637Y010846D01*
X011993Y010846D02*
X011993Y011153D01*
X012146Y011306D01*
X012300Y011153D01*
X012300Y010846D01*
X012453Y010922D02*
X012453Y011229D01*
X012530Y011306D01*
X012684Y011306D01*
X012760Y011229D01*
X012453Y010922D01*
X012530Y010846D01*
X012684Y010846D01*
X012760Y010922D01*
X012760Y011229D01*
X012993Y011306D02*
X012993Y010846D01*
X013223Y010846D01*
X013300Y010922D01*
X013300Y011229D01*
X013223Y011306D01*
X012993Y011306D01*
X013453Y011229D02*
X013453Y010922D01*
X013760Y011229D01*
X013760Y010922D01*
X013684Y010846D01*
X013530Y010846D01*
X013453Y010922D01*
X013453Y011229D02*
X013530Y011306D01*
X013684Y011306D01*
X013760Y011229D01*
X013993Y011306D02*
X013993Y010846D01*
X014223Y010846D01*
X014300Y010922D01*
X014300Y011229D01*
X014223Y011306D01*
X013993Y011306D01*
X014453Y011306D02*
X014453Y011076D01*
X014607Y011153D01*
X014684Y011153D01*
X014760Y011076D01*
X014760Y010922D01*
X014684Y010846D01*
X014530Y010846D01*
X014453Y010922D01*
X014453Y011306D02*
X014760Y011306D01*
X014993Y011306D02*
X014993Y010846D01*
X015223Y010846D01*
X015300Y010922D01*
X015300Y011229D01*
X015223Y011306D01*
X014993Y011306D01*
X015453Y011076D02*
X015453Y010922D01*
X015530Y010846D01*
X015684Y010846D01*
X015760Y010922D01*
X015760Y010999D01*
X015684Y011076D01*
X015453Y011076D01*
X015607Y011229D01*
X015760Y011306D01*
X015993Y011306D02*
X015993Y010846D01*
X016223Y010846D01*
X016300Y010922D01*
X016300Y011229D01*
X016223Y011306D01*
X015993Y011306D01*
X016453Y011306D02*
X016760Y011306D01*
X016760Y011229D01*
X016453Y010922D01*
X016453Y010846D01*
X016993Y010846D02*
X017223Y010846D01*
X017300Y010922D01*
X017300Y011229D01*
X017223Y011306D01*
X016993Y011306D01*
X016993Y010846D01*
X017453Y010922D02*
X017453Y010999D01*
X017530Y011076D01*
X017684Y011076D01*
X017760Y010999D01*
X017760Y010922D01*
X017684Y010846D01*
X017530Y010846D01*
X017453Y010922D01*
X017530Y011076D02*
X017453Y011153D01*
X017453Y011229D01*
X017530Y011306D01*
X017684Y011306D01*
X017760Y011229D01*
X017760Y011153D01*
X017684Y011076D01*
X018203Y011076D02*
X018203Y010922D01*
X018280Y010846D01*
X018433Y010999D02*
X018433Y011076D01*
X018510Y011153D01*
X018587Y011153D01*
X018663Y011076D01*
X018663Y010922D01*
X018587Y010846D01*
X018433Y011076D02*
X018356Y011153D01*
X018280Y011153D01*
X018203Y011076D01*
X018203Y011306D02*
X018510Y011306D01*
X018663Y011459D01*
X018510Y011613D01*
X018203Y011613D01*
X018280Y011766D02*
X018203Y011843D01*
X018203Y011997D01*
X018280Y012073D01*
X018356Y012073D01*
X018433Y011997D01*
X018510Y012073D01*
X018587Y012073D01*
X018663Y011997D01*
X018663Y011843D01*
X018587Y011766D01*
X018433Y011920D02*
X018433Y011997D01*
X020203Y013705D02*
X020587Y013705D01*
X020663Y013782D01*
X020663Y013935D01*
X020587Y014012D01*
X020203Y014012D01*
X020280Y014165D02*
X020356Y014165D01*
X020433Y014242D01*
X020433Y014396D01*
X020510Y014472D01*
X020587Y014472D01*
X020663Y014396D01*
X020663Y014242D01*
X020587Y014165D01*
X020280Y014165D02*
X020203Y014242D01*
X020203Y014396D01*
X020280Y014472D01*
X020203Y014626D02*
X020203Y014856D01*
X020280Y014933D01*
X020356Y014933D01*
X020433Y014856D01*
X020433Y014626D01*
X020433Y014856D02*
X020510Y014933D01*
X020587Y014933D01*
X020663Y014856D01*
X020663Y014626D01*
X020203Y014626D01*
X018587Y017525D02*
X018663Y017602D01*
X018663Y017755D01*
X018587Y017832D01*
X018433Y017832D01*
X018356Y017755D01*
X018356Y017678D01*
X018433Y017525D01*
X018203Y017525D01*
X018203Y017832D01*
X018203Y017985D02*
X018510Y017985D01*
X018663Y018139D01*
X018510Y018292D01*
X018203Y018292D01*
X017663Y018215D02*
X017663Y017985D01*
X017203Y017985D01*
X017203Y018215D01*
X017280Y018292D01*
X017587Y018292D01*
X017663Y018215D01*
X017663Y017832D02*
X017203Y017832D01*
X017203Y017525D02*
X017663Y017832D01*
X017663Y017525D02*
X017203Y017525D01*
X017280Y017371D02*
X017203Y017295D01*
X017203Y017141D01*
X017280Y017064D01*
X017587Y017064D01*
X017663Y017141D01*
X017663Y017295D01*
X017587Y017371D01*
X017433Y017371D01*
X017433Y017218D01*
X012300Y011076D02*
X011993Y011076D01*
X010563Y010846D02*
X010563Y011306D01*
X010556Y008106D02*
X010249Y007799D01*
X010326Y007876D02*
X010556Y007646D01*
X010710Y007646D02*
X011016Y007646D01*
X010863Y007646D02*
X010863Y008106D01*
X010710Y007953D01*
X010249Y008106D02*
X010249Y007646D01*
X010096Y007646D02*
X009789Y007646D01*
X009789Y008106D01*
X009635Y008106D02*
X009635Y007646D01*
X009635Y007876D02*
X009328Y007876D01*
X009328Y007646D02*
X009328Y008106D01*
X001163Y002042D02*
X001163Y001735D01*
X000856Y002042D01*
X000780Y002042D01*
X000703Y001966D01*
X000703Y001812D01*
X000780Y001735D01*
X000703Y001582D02*
X001163Y001275D01*
X001163Y001582D02*
X000703Y001275D01*
D14*
X005033Y001901D02*
X005033Y002126D01*
X005108Y002201D01*
X005258Y002201D01*
X005333Y002126D01*
X005333Y001901D01*
X005333Y002051D02*
X005483Y002201D01*
X005483Y002361D02*
X005483Y002661D01*
X005483Y002511D02*
X005033Y002511D01*
X005183Y002361D01*
X005033Y001901D02*
X005483Y001901D01*
X008433Y009626D02*
X011183Y009626D01*
X010933Y009876D01*
X010933Y010376D01*
X011183Y010626D01*
X011683Y010626D01*
X011933Y010376D01*
X012183Y010626D01*
X012683Y010626D01*
X012933Y010376D01*
X013183Y010626D01*
X013683Y010626D01*
X013933Y010376D01*
X014183Y010626D01*
X014683Y010626D01*
X014933Y010376D01*
X015183Y010626D01*
X015683Y010626D01*
X015933Y010376D01*
X016183Y010626D01*
X016683Y010626D01*
X016933Y010376D01*
X017183Y010626D01*
X017683Y010626D01*
X017933Y010376D01*
X018183Y010626D01*
X018683Y010626D01*
X018933Y010376D01*
X018933Y009876D01*
X018683Y009626D01*
X018183Y009626D02*
X017933Y009876D01*
X017683Y009626D01*
X017183Y009626D02*
X016933Y009876D01*
X016683Y009626D01*
X016183Y009626D02*
X015933Y009876D01*
X015683Y009626D01*
X015183Y009626D02*
X014933Y009876D01*
X014683Y009626D01*
X014183Y009626D02*
X013933Y009876D01*
X013683Y009626D01*
X019183Y009626D01*
X019183Y010376D01*
X019933Y010376D01*
X019933Y009876D01*
X020933Y009876D01*
X020933Y010376D01*
X021933Y010376D01*
X021933Y012626D01*
X021333Y012626D01*
X021333Y012876D01*
X021183Y012876D01*
X021333Y012876D02*
X021683Y012876D01*
X021683Y015876D01*
X021333Y015876D01*
X021183Y015876D01*
X021333Y015876D02*
X021333Y016126D01*
X021933Y016126D01*
X021933Y019626D01*
X013683Y019626D01*
X013933Y019376D01*
X014183Y019626D01*
X013683Y019626D02*
X013183Y019626D01*
X012933Y019376D01*
X012683Y019626D01*
X013183Y019626D01*
X012683Y019626D02*
X012183Y019626D01*
X011933Y019376D01*
X011683Y019626D01*
X012183Y019626D01*
X011683Y019626D02*
X011183Y019626D01*
X010933Y019376D01*
X010933Y018876D01*
X011183Y018626D01*
X011683Y018626D01*
X011933Y018876D01*
X012183Y018626D01*
X012683Y018626D01*
X012933Y018876D01*
X013183Y018626D01*
X013683Y018626D01*
X013933Y018876D01*
X014183Y018626D01*
X014683Y018626D01*
X014933Y018876D01*
X015183Y018626D01*
X015683Y018626D01*
X015933Y018876D01*
X016183Y018626D01*
X016683Y018626D01*
X016933Y018876D01*
X017183Y018626D01*
X017683Y018626D01*
X017933Y018876D01*
X018183Y018626D01*
X018683Y018626D01*
X018933Y018876D01*
X018933Y019376D01*
X018683Y019626D01*
X018183Y019626D02*
X017933Y019376D01*
X017683Y019626D01*
X017183Y019626D02*
X016933Y019376D01*
X016683Y019626D01*
X016183Y019626D02*
X015933Y019376D01*
X015683Y019626D01*
X015183Y019626D02*
X014933Y019376D01*
X014683Y019626D01*
X013229Y021601D02*
X013071Y021601D01*
X013008Y022151D02*
X011359Y022151D01*
X011296Y021601D02*
X011138Y021601D01*
X010648Y021226D02*
X010648Y020776D01*
X010498Y020776D02*
X010798Y020776D01*
X010498Y021076D02*
X010648Y021226D01*
X010338Y021226D02*
X010038Y021226D01*
X010188Y021226D02*
X010188Y020776D01*
X011183Y019626D02*
X008433Y019626D01*
X008433Y017726D01*
X008333Y017726D01*
X008333Y011526D01*
X008433Y011526D01*
X010683Y011526D01*
X017683Y011526D01*
X017683Y016926D01*
X016983Y017726D02*
X010683Y017726D01*
X010683Y011526D01*
X009808Y012717D02*
X009441Y012717D01*
X009258Y012900D01*
X009441Y013084D01*
X009808Y013084D01*
X009808Y013269D02*
X009258Y013269D01*
X009808Y013636D01*
X009258Y013636D01*
X009258Y013822D02*
X009258Y014189D01*
X009258Y014005D02*
X009808Y014005D01*
X009808Y014374D02*
X009258Y014374D01*
X009258Y014741D01*
X009258Y014927D02*
X009808Y015294D01*
X009258Y015294D01*
X009258Y015479D02*
X009808Y015846D01*
X009258Y015846D01*
X009441Y016032D02*
X009258Y016215D01*
X009441Y016399D01*
X009808Y016399D01*
X009533Y016399D02*
X009533Y016032D01*
X009441Y016032D02*
X009808Y016032D01*
X009808Y015479D02*
X009258Y015479D01*
X009258Y014927D02*
X009808Y014927D01*
X009808Y014741D02*
X009808Y014374D01*
X009533Y014374D02*
X009533Y014558D01*
X009533Y013084D02*
X009533Y012717D01*
X008433Y011526D02*
X008433Y009626D01*
X011183Y009626D02*
X011683Y009626D01*
X011933Y009876D01*
X012183Y009626D01*
X011683Y009626D01*
X012183Y009626D02*
X012683Y009626D01*
X012933Y009876D01*
X013183Y009626D01*
X012683Y009626D01*
X013183Y009626D02*
X013683Y009626D01*
X019183Y012876D02*
X019183Y013126D01*
X019183Y013376D02*
X019183Y013626D01*
X019183Y013876D02*
X019183Y014126D01*
X019183Y014376D02*
X019183Y014626D01*
X019183Y014876D02*
X019183Y015126D01*
X019183Y015376D02*
X019183Y015626D01*
X019183Y015876D02*
X019433Y015876D01*
X019683Y015876D02*
X019933Y015876D01*
X020183Y015876D02*
X020433Y015876D01*
X020683Y015876D02*
X020933Y015876D01*
X020933Y012876D02*
X020683Y012876D01*
X020433Y012876D02*
X020183Y012876D01*
X019933Y012876D02*
X019683Y012876D01*
X019433Y012876D02*
X019183Y012876D01*
X019933Y010376D02*
X020933Y010376D01*
X017433Y020351D02*
X017333Y020351D01*
X017433Y020351D02*
X017433Y020501D01*
X016983Y022651D02*
X017933Y022651D01*
X021508Y022951D02*
X021583Y022876D01*
X021734Y022876D01*
X021809Y022951D01*
X021969Y022876D02*
X022269Y023176D01*
X022269Y023251D01*
X022194Y023326D01*
X022044Y023326D01*
X021969Y023251D01*
X021809Y023251D02*
X021734Y023326D01*
X021583Y023326D01*
X021508Y023251D01*
X021508Y022951D01*
X021969Y022876D02*
X022269Y022876D01*
X012296Y021601D02*
X012071Y021601D01*
X013008Y022151D02*
X013043Y022103D01*
X013076Y022053D01*
X013107Y022001D01*
X013134Y021947D01*
X013158Y021892D01*
X013178Y021835D01*
X013196Y021778D01*
X013210Y021720D01*
X013221Y021661D01*
X013228Y021601D01*
X011873Y020498D02*
X011813Y020518D01*
X011754Y020542D01*
X011697Y020570D01*
X011642Y020601D01*
X011588Y020636D01*
X011537Y020673D01*
X011488Y020714D01*
X011442Y020758D01*
X011398Y020804D01*
X011357Y020853D01*
X011319Y020904D01*
X011285Y020957D01*
X011253Y021013D01*
X011226Y021070D01*
X011201Y021129D01*
X011181Y021189D01*
X011163Y021250D01*
X011150Y021312D01*
X011141Y021375D01*
X011135Y021438D01*
X011133Y021502D01*
X011135Y021566D01*
X011141Y021629D01*
X011150Y021692D01*
X011164Y021754D01*
X011181Y021815D01*
X011202Y021875D01*
X011226Y021934D01*
X011254Y021991D01*
X011286Y022047D01*
X011321Y022100D01*
X011358Y022151D01*
X013228Y021601D02*
X013232Y021539D01*
X013233Y021476D01*
X013229Y021414D01*
X013222Y021352D01*
X013212Y021291D01*
X013197Y021230D01*
X013179Y021170D01*
X013158Y021111D01*
X013133Y021054D01*
X013105Y020999D01*
X013074Y020945D01*
X013039Y020893D01*
X013001Y020843D01*
X012961Y020796D01*
X012917Y020751D01*
X012872Y020708D01*
X012823Y020669D01*
X012773Y020632D01*
X012720Y020599D01*
X012666Y020568D01*
X012609Y020541D01*
X012552Y020518D01*
X012493Y020498D01*
X010683Y017726D02*
X008433Y017726D01*
X008413Y019676D02*
X008263Y019826D01*
X008338Y019826D02*
X008113Y019826D01*
X008113Y019676D02*
X008113Y020126D01*
X008338Y020126D01*
X008413Y020051D01*
X008413Y019901D01*
X008338Y019826D01*
X008573Y019676D02*
X008873Y019976D01*
X008873Y020051D01*
X008798Y020126D01*
X008648Y020126D01*
X008573Y020051D01*
X008573Y019676D02*
X008873Y019676D01*
D15*
X004083Y014476D02*
X004083Y010276D01*
X001783Y010276D02*
X001783Y014476D01*
X006108Y007126D02*
X006108Y004376D01*
X006258Y004376D02*
X006258Y005376D01*
X007358Y004376D02*
X007358Y003376D01*
X007508Y004376D02*
X007508Y001626D01*
D16*
X003958Y010151D03*
X001908Y010151D03*
X001908Y014601D03*
X003958Y014601D03*
D17*
X003833Y009151D03*
D18*
X003683Y012376D03*
X002183Y012376D03*
D19*
X002158Y009301D03*
X003708Y009301D03*
X003708Y015451D03*
X002158Y015451D03*
D20*
X002033Y015526D03*
X003833Y015526D03*
X002033Y009226D03*
D21*
X001940Y007117D02*
X001339Y007117D01*
X001339Y001117D01*
X001940Y001117D01*
X002130Y001117D01*
X003703Y001117D01*
X003897Y001117D01*
X003897Y007117D01*
X004165Y007117D01*
X004410Y007117D01*
X004528Y007117D01*
X004528Y001117D01*
X004410Y001117D01*
X004410Y007117D01*
X004165Y007117D02*
X004165Y001117D01*
X004243Y001117D01*
X004410Y001117D01*
X004302Y000996D02*
X004243Y001067D01*
X004243Y001117D01*
X004165Y001117D02*
X004080Y001117D01*
X003897Y001117D01*
X004021Y000996D02*
X004080Y001067D01*
X004080Y001117D01*
X004021Y000996D02*
X004021Y000893D01*
X004302Y000893D01*
X004302Y000996D01*
X002169Y002117D02*
X002171Y002171D01*
X002177Y002226D01*
X002187Y002279D01*
X002200Y002332D01*
X002218Y002383D01*
X002239Y002434D01*
X002263Y002482D01*
X002291Y002529D01*
X002323Y002573D01*
X002357Y002615D01*
X002395Y002655D01*
X002435Y002692D01*
X002478Y002725D01*
X002523Y002756D01*
X002570Y002783D01*
X002619Y002807D01*
X002669Y002827D01*
X002721Y002844D01*
X002774Y002856D01*
X002828Y002865D01*
X002882Y002870D01*
X002937Y002871D01*
X002991Y002868D01*
X003045Y002861D01*
X003098Y002850D01*
X003151Y002836D01*
X003202Y002817D01*
X003252Y002795D01*
X003300Y002770D01*
X003346Y002741D01*
X003390Y002709D01*
X003432Y002674D01*
X003470Y002636D01*
X003506Y002595D01*
X003539Y002551D01*
X003569Y002506D01*
X003595Y002458D01*
X003618Y002409D01*
X003638Y002358D01*
X003653Y002306D01*
X003665Y002252D01*
X003673Y002199D01*
X003677Y002144D01*
X003677Y002090D01*
X003673Y002035D01*
X003665Y001982D01*
X003653Y001928D01*
X003638Y001876D01*
X003618Y001825D01*
X003595Y001776D01*
X003569Y001728D01*
X003539Y001683D01*
X003506Y001639D01*
X003470Y001598D01*
X003432Y001560D01*
X003390Y001525D01*
X003346Y001493D01*
X003300Y001464D01*
X003252Y001439D01*
X003202Y001417D01*
X003151Y001398D01*
X003098Y001384D01*
X003045Y001373D01*
X002991Y001366D01*
X002937Y001363D01*
X002882Y001364D01*
X002828Y001369D01*
X002774Y001378D01*
X002721Y001390D01*
X002669Y001407D01*
X002619Y001427D01*
X002570Y001451D01*
X002523Y001478D01*
X002478Y001509D01*
X002435Y001542D01*
X002395Y001579D01*
X002357Y001619D01*
X002323Y001661D01*
X002291Y001705D01*
X002263Y001752D01*
X002239Y001800D01*
X002218Y001851D01*
X002200Y001902D01*
X002187Y001955D01*
X002177Y002008D01*
X002171Y002063D01*
X002169Y002117D01*
X001940Y001117D02*
X001940Y007117D01*
X002130Y007117D01*
X003703Y007117D01*
X003897Y007117D01*
X002169Y006117D02*
X002171Y006171D01*
X002177Y006226D01*
X002187Y006279D01*
X002200Y006332D01*
X002218Y006383D01*
X002239Y006434D01*
X002263Y006482D01*
X002291Y006529D01*
X002323Y006573D01*
X002357Y006615D01*
X002395Y006655D01*
X002435Y006692D01*
X002478Y006725D01*
X002523Y006756D01*
X002570Y006783D01*
X002619Y006807D01*
X002669Y006827D01*
X002721Y006844D01*
X002774Y006856D01*
X002828Y006865D01*
X002882Y006870D01*
X002937Y006871D01*
X002991Y006868D01*
X003045Y006861D01*
X003098Y006850D01*
X003151Y006836D01*
X003202Y006817D01*
X003252Y006795D01*
X003300Y006770D01*
X003346Y006741D01*
X003390Y006709D01*
X003432Y006674D01*
X003470Y006636D01*
X003506Y006595D01*
X003539Y006551D01*
X003569Y006506D01*
X003595Y006458D01*
X003618Y006409D01*
X003638Y006358D01*
X003653Y006306D01*
X003665Y006252D01*
X003673Y006199D01*
X003677Y006144D01*
X003677Y006090D01*
X003673Y006035D01*
X003665Y005982D01*
X003653Y005928D01*
X003638Y005876D01*
X003618Y005825D01*
X003595Y005776D01*
X003569Y005728D01*
X003539Y005683D01*
X003506Y005639D01*
X003470Y005598D01*
X003432Y005560D01*
X003390Y005525D01*
X003346Y005493D01*
X003300Y005464D01*
X003252Y005439D01*
X003202Y005417D01*
X003151Y005398D01*
X003098Y005384D01*
X003045Y005373D01*
X002991Y005366D01*
X002937Y005363D01*
X002882Y005364D01*
X002828Y005369D01*
X002774Y005378D01*
X002721Y005390D01*
X002669Y005407D01*
X002619Y005427D01*
X002570Y005451D01*
X002523Y005478D01*
X002478Y005509D01*
X002435Y005542D01*
X002395Y005579D01*
X002357Y005619D01*
X002323Y005661D01*
X002291Y005705D01*
X002263Y005752D01*
X002239Y005800D01*
X002218Y005851D01*
X002200Y005902D01*
X002187Y005955D01*
X002177Y006008D01*
X002171Y006063D01*
X002169Y006117D01*
X002169Y004117D02*
X002171Y004171D01*
X002177Y004226D01*
X002187Y004279D01*
X002200Y004332D01*
X002218Y004383D01*
X002239Y004434D01*
X002263Y004482D01*
X002291Y004529D01*
X002323Y004573D01*
X002357Y004615D01*
X002395Y004655D01*
X002435Y004692D01*
X002478Y004725D01*
X002523Y004756D01*
X002570Y004783D01*
X002619Y004807D01*
X002669Y004827D01*
X002721Y004844D01*
X002774Y004856D01*
X002828Y004865D01*
X002882Y004870D01*
X002937Y004871D01*
X002991Y004868D01*
X003045Y004861D01*
X003098Y004850D01*
X003151Y004836D01*
X003202Y004817D01*
X003252Y004795D01*
X003300Y004770D01*
X003346Y004741D01*
X003390Y004709D01*
X003432Y004674D01*
X003470Y004636D01*
X003506Y004595D01*
X003539Y004551D01*
X003569Y004506D01*
X003595Y004458D01*
X003618Y004409D01*
X003638Y004358D01*
X003653Y004306D01*
X003665Y004252D01*
X003673Y004199D01*
X003677Y004144D01*
X003677Y004090D01*
X003673Y004035D01*
X003665Y003982D01*
X003653Y003928D01*
X003638Y003876D01*
X003618Y003825D01*
X003595Y003776D01*
X003569Y003728D01*
X003539Y003683D01*
X003506Y003639D01*
X003470Y003598D01*
X003432Y003560D01*
X003390Y003525D01*
X003346Y003493D01*
X003300Y003464D01*
X003252Y003439D01*
X003202Y003417D01*
X003151Y003398D01*
X003098Y003384D01*
X003045Y003373D01*
X002991Y003366D01*
X002937Y003363D01*
X002882Y003364D01*
X002828Y003369D01*
X002774Y003378D01*
X002721Y003390D01*
X002669Y003407D01*
X002619Y003427D01*
X002570Y003451D01*
X002523Y003478D01*
X002478Y003509D01*
X002435Y003542D01*
X002395Y003579D01*
X002357Y003619D01*
X002323Y003661D01*
X002291Y003705D01*
X002263Y003752D01*
X002239Y003800D01*
X002218Y003851D01*
X002200Y003902D01*
X002187Y003955D01*
X002177Y004008D01*
X002171Y004063D01*
X002169Y004117D01*
X001393Y013216D02*
X000473Y013216D01*
X000473Y013829D01*
X000779Y014136D02*
X000473Y014443D01*
X001393Y014443D01*
X001393Y014136D02*
X001393Y014750D01*
X000933Y013523D02*
X000933Y013216D01*
D22*
X020248Y012361D02*
X020248Y012114D01*
X020248Y011992D02*
X020248Y011746D01*
X020618Y011746D01*
X020618Y011992D01*
X020433Y011869D02*
X020433Y011746D01*
X020495Y011624D02*
X020557Y011624D01*
X020618Y011562D01*
X020618Y011439D01*
X020557Y011377D01*
X020618Y011256D02*
X020618Y011009D01*
X020248Y011009D01*
X020248Y011256D01*
X020310Y011377D02*
X020371Y011377D01*
X020433Y011439D01*
X020433Y011562D01*
X020495Y011624D01*
X020310Y011624D02*
X020248Y011562D01*
X020248Y011439D01*
X020310Y011377D01*
X020433Y011132D02*
X020433Y011009D01*
X020433Y010887D02*
X020495Y010826D01*
X020495Y010641D01*
X020495Y010764D02*
X020618Y010887D01*
X020433Y010887D02*
X020310Y010887D01*
X020248Y010826D01*
X020248Y010641D01*
X020618Y010641D01*
X020618Y012237D02*
X020248Y012237D01*
D23*
X009228Y020751D03*
X006388Y020751D03*
D24*
X013933Y020351D02*
X016933Y020351D01*
X017433Y020351D01*
X017433Y020751D01*
X017333Y020951D01*
X014533Y020951D01*
X014433Y020751D01*
X014433Y020351D01*
X014533Y020351D02*
X014533Y020751D01*
X014433Y020751D01*
X014533Y020751D02*
X017333Y020751D01*
X017333Y020351D01*
X017433Y020351D02*
X017933Y020351D01*
X017933Y021501D01*
X017933Y022651D01*
X017833Y022651D02*
X017683Y022651D01*
X016183Y022651D01*
X015683Y022651D01*
X015683Y022401D01*
X015183Y022401D01*
X015183Y022651D01*
X014683Y022651D01*
X014683Y022401D01*
X014183Y022401D01*
X014183Y022651D01*
X013933Y022651D01*
X016983Y022651D01*
X017183Y022651D02*
X017183Y022401D01*
X017683Y022401D01*
X017683Y022651D01*
X017183Y022651D02*
X016683Y022651D01*
X016683Y022401D01*
X016183Y022401D01*
X016183Y022651D01*
X017333Y020751D02*
X017433Y020751D01*
X013933Y020351D02*
X013933Y021501D01*
X013933Y022651D01*
D25*
X013412Y021757D02*
X013269Y021613D01*
X013412Y021757D02*
X013412Y021326D01*
X013269Y021326D02*
X013555Y021326D01*
X017969Y021521D02*
X018255Y021521D01*
X018184Y021306D02*
X018184Y021737D01*
X017969Y021521D01*
M02*
