G75*
G70*
%OFA0B0*%
%FSLAX24Y24*%
%IPPOS*%
%LPD*%
%AMOC8*
5,1,8,0,0,1.08239X$1,22.5*
%
%ADD10C,0.1080*%
%ADD11R,0.0680X0.0680*%
%ADD12OC8,0.0710*%
%ADD13C,0.0710*%
%ADD14C,0.0680*%
%ADD15C,0.1080*%
%ADD16C,0.0674*%
%ADD17OC8,0.0600*%
%ADD18OC8,0.0740*%
%ADD19C,0.0867*%
D10*
X006558Y010001D03*
X001433Y022376D03*
D11*
X009521Y005610D03*
X009521Y003641D03*
X021096Y001594D03*
X021096Y007657D03*
D12*
X020883Y021751D03*
D13*
X019483Y021751D03*
D14*
X017433Y021801D02*
X017433Y021201D01*
X016433Y021201D02*
X016433Y021801D01*
X015433Y021801D02*
X015433Y021201D01*
X014433Y021201D02*
X014433Y021801D01*
X007708Y005876D02*
X007108Y005876D01*
X006508Y002876D02*
X005908Y002876D01*
D15*
X003433Y008276D02*
X002433Y008276D01*
X002433Y010276D02*
X003433Y010276D01*
X003433Y014476D02*
X002433Y014476D01*
X002433Y016476D02*
X003433Y016476D01*
D16*
X011433Y019126D03*
X012433Y019126D03*
X013433Y019126D03*
X014433Y019126D03*
X015433Y019126D03*
X016433Y019126D03*
X017433Y019126D03*
X018433Y019126D03*
X018433Y010126D03*
X017433Y010126D03*
X016433Y010126D03*
X015433Y010126D03*
X014433Y010126D03*
X013433Y010126D03*
X012433Y010126D03*
X011433Y010126D03*
D17*
X012183Y020751D03*
X011683Y021501D03*
X012683Y021501D03*
D18*
X009808Y020751D03*
X005808Y020751D03*
D19*
X002923Y002117D03*
X002923Y004117D03*
X002923Y006117D03*
M02*
